<?xml version="1.0" encoding="UTF-8"?>
<svg version="1.1" xmlns="http://www.w3.org/2000/svg" width="1010" height="1944">
<path d="M0 0 C8.20198314 7.3388746 15.38435091 15.22600835 22.18359375 23.87109375 C23.37082031 25.33289063 23.37082031 25.33289063 24.58203125 26.82421875 C31.63253495 35.67627072 37.50619903 45.09213398 43.18359375 54.87109375 C43.55226563 55.49709473 43.9209375 56.1230957 44.30078125 56.76806641 C58.56563909 81.18859137 66.28527346 109.03085378 70.18359375 136.87109375 C70.28961914 137.62044189 70.39564453 138.36979004 70.50488281 139.1418457 C71.43208884 146.83061162 71.33458511 154.56043134 71.31396484 162.29223633 C71.30862833 164.66819713 71.31392486 167.04396698 71.3203125 169.41992188 C71.31994811 170.97265675 71.31865545 172.52539171 71.31640625 174.078125 C71.31707092 174.83744827 71.3177356 175.59677155 71.31842041 176.37910461 C71.29260493 180.93062725 70.90419476 185.29001662 70.30078125 189.80859375 C69.6923694 196.92924512 72.34227618 201.24630429 76.18359375 207.05859375 C77.48849836 209.15791062 78.79183069 211.25820545 80.09375 213.359375 C81.11106201 214.9673999 81.11106201 214.9673999 82.14892578 216.60791016 C85.45122012 221.9041024 88.52755084 227.32626216 91.62109375 232.74609375 C92.87931564 234.93150378 94.1384347 237.11639752 95.3984375 239.30078125 C96.02347168 240.38584961 96.64850586 241.47091797 97.29248047 242.58886719 C99.79673505 246.93526515 102.30352727 251.28019648 104.81054688 255.625 C106.6864989 258.87612854 108.56199904 262.12751749 110.4375 265.37890625 C112.92290277 269.68711026 115.41001352 273.99432164 117.8984375 278.30078125 C126.3643527 292.95576407 134.77911685 307.63942037 143.16748047 322.33886719 C146.17108878 327.60185903 149.17825951 332.86281491 152.18515015 338.12393188 C153.183267 339.87052197 154.18114719 341.61724706 155.17895508 343.36401367 C158.19494205 348.64352383 161.21211498 353.92234013 164.23486328 359.19798279 C171.60567815 372.06258437 178.93398743 384.94873558 186.15649414 397.89746094 C190.43860877 405.56739866 194.78282688 413.20001382 199.19042969 420.79858398 C200.54252912 423.14502985 201.87063179 425.50254091 203.18359375 427.87109375 C203.63049561 428.67232666 204.07739746 429.47355957 204.5378418 430.29907227 C207.7614385 436.3622055 209.53611511 442.21532375 210.87109375 448.93359375 C211.07822998 449.9496167 211.28536621 450.96563965 211.4987793 452.01245117 C212.08464892 454.96135153 212.64106543 457.91394713 213.18359375 460.87109375 C213.31926758 461.58587891 213.45494141 462.30066406 213.59472656 463.03710938 C229.31575667 549.74634022 182.75669863 638.19374459 135.18359375 706.87109375 C131.33228679 712.32411249 127.31849237 717.63128584 123.18359375 722.87109375 C122.23491634 724.09185711 121.28701704 725.31322549 120.33984375 726.53515625 C107.5229521 743.01683336 94.05663385 758.90800298 79.78759766 774.14941406 C78.07995504 775.98233579 76.38720001 777.82831254 74.6953125 779.67578125 C66.21109086 788.89485673 57.3461925 797.59135782 48.13037109 806.07714844 C46.35604431 807.71218145 44.59051285 809.35602834 42.828125 811.00390625 C36.4951115 816.90175067 29.9481616 822.4744006 23.18359375 827.87109375 C22.29542969 828.61488281 21.40726563 829.35867188 20.4921875 830.125 C18.18359375 831.87109375 18.18359375 831.87109375 16.18359375 831.87109375 C16.13222165 832.98062692 16.08084955 834.09016008 16.02792072 835.23331547 C15.41106869 847.99903786 14.45107351 860.72126545 13.3894043 873.45678711 C13.20834585 875.65369455 13.02750514 877.85061995 12.84686279 880.04756165 C12.3600427 885.95693651 11.86935625 891.86598338 11.37727332 897.77492213 C11.06878419 901.47928958 10.76084002 905.18370199 10.45301247 908.88812447 C9.48637797 920.51640979 8.51698727 932.14446119 7.54411477 943.77222627 C7.43280829 945.10262649 7.32150506 946.43302698 7.21020508 947.76342773 C7.15499814 948.42331594 7.0997912 949.08320414 7.04291133 949.76308895 C6.14857738 960.45628689 5.26411576 971.15027726 4.38376667 981.8446347 C3.47485399 992.88402723 2.55692347 1003.92264163 1.63090354 1014.96061236 C1.11318295 1021.13427683 0.59917162 1027.30819395 0.09467125 1033.48295403 C-0.38023489 1039.29278489 -0.86635167 1045.10157532 -1.36064148 1050.90978813 C-1.53876516 1053.02480551 -1.71304713 1055.14015106 -1.88290977 1057.25584793 C-3.99618623 1083.50666024 -9.07520394 1107.64223512 -21.81640625 1130.87109375 C-22.32042969 1131.7940625 -22.82445312 1132.71703125 -23.34375 1133.66796875 C-41.19399401 1164.72047079 -72.24834084 1189.90714566 -106.81640625 1199.87109375 C-149.31472371 1210.80559534 -191.23486911 1206.78514809 -229.45703125 1184.5703125 C-236.05854871 1180.58249838 -241.98721592 1175.90226068 -247.81640625 1170.87109375 C-248.37166992 1170.39945801 -248.92693359 1169.92782227 -249.49902344 1169.44189453 C-258.0871465 1162.09095905 -265.25126513 1154.0658621 -271.81640625 1144.87109375 C-272.21311523 1144.31728027 -272.60982422 1143.7634668 -273.01855469 1143.19287109 C-281.93817549 1130.53119647 -288.67023458 1116.55028893 -293.19140625 1101.74609375 C-293.41787842 1101.00858887 -293.64435059 1100.27108398 -293.87768555 1099.51123047 C-298.38523908 1083.74072185 -299.660058 1067.44658721 -300.97705078 1051.17285156 C-301.17223092 1048.83360188 -301.36811274 1046.49441065 -301.56463623 1044.15527344 C-301.98332807 1039.15384389 -302.39711353 1034.15204239 -302.80694962 1029.14987946 C-303.39993456 1021.91244278 -304.00179895 1014.6757635 -304.60618566 1007.43927202 C-305.58759409 995.68623772 -306.56246449 983.9326713 -307.53271484 972.17871094 C-308.47322534 960.78529886 -309.41541347 949.39202875 -310.36083984 937.99902344 C-310.41922618 937.29541181 -310.47761252 936.59180017 -310.53776814 935.86686698 C-311.17534437 928.18436005 -311.81369503 920.50191783 -312.45307732 912.819561 C-312.50925498 912.14455881 -312.56543265 911.46955662 -312.62331267 910.77409981 C-312.84787591 908.07602397 -313.07245203 905.3779492 -313.29713224 902.67988309 C-314.00747118 894.14963018 -314.71424451 885.61909305 -315.41724801 877.08823252 C-315.81984433 872.20840922 -316.22472969 867.32877765 -316.63014984 862.44918823 C-316.81781945 860.18410359 -317.00448007 857.9189351 -317.19006729 855.65367889 C-317.44309042 852.5666842 -317.69964449 849.48000249 -317.95706177 846.39337158 C-318.06635142 845.0435434 -318.06635142 845.0435434 -318.17784894 843.66644597 C-318.33986827 836.37853785 -318.33986827 836.37853785 -321.42578125 830.23828125 C-322.48539062 829.49964844 -322.48539062 829.49964844 -323.56640625 828.74609375 C-327.51646955 825.85229738 -331.32932662 822.84635043 -335.06640625 819.68359375 C-336.0409375 818.86503906 -337.01546875 818.04648438 -338.01953125 817.203125 C-348.81664119 807.83906924 -358.99809567 797.85037587 -369.08447266 787.73339844 C-371.20621634 785.60624591 -373.33332116 783.48455814 -375.4609375 781.36328125 C-376.83756065 779.98599792 -378.21387391 778.60840476 -379.58984375 777.23046875 C-380.21289398 776.60944275 -380.83594421 775.98841675 -381.47787476 775.34857178 C-385.78665451 771.01708637 -389.83761521 766.5061915 -393.81640625 761.87109375 C-394.75488561 760.78878258 -395.69362904 759.70670024 -396.6328125 758.625 C-437.82309805 710.85586538 -473.37789587 658.7019503 -496.81640625 599.87109375 C-497.33025879 598.59226318 -497.33025879 598.59226318 -497.85449219 597.28759766 C-517.24560316 548.57164896 -529.28749767 483.23621682 -508.81640625 432.87109375 C-507.22825442 429.68007525 -505.44722477 426.62312127 -503.62890625 423.55859375 C-502.54908564 421.70335399 -501.46968069 419.84787226 -500.390625 417.9921875 C-499.8136084 417.00589355 -499.2365918 416.01959961 -498.64208984 415.00341797 C-495.71783898 409.98628256 -492.83756081 404.94404108 -489.95803833 399.90115356 C-488.9350467 398.10995856 -487.91081166 396.3194786 -486.88647461 394.52905273 C-482.44087244 386.75246475 -478.05176924 378.94587159 -473.69140625 371.12109375 C-468.59431445 361.97660827 -463.36641812 352.91750169 -458.06591797 343.88964844 C-453.89351115 336.76523177 -449.83141902 329.58523734 -445.81640625 322.37109375 C-440.71969494 313.2167307 -435.50779295 304.13912243 -430.20703125 295.1015625 C-425.68809912 287.38925166 -421.24074137 279.63784731 -416.81640625 271.87109375 C-411.2827249 262.15992964 -405.69529859 252.48210669 -400.05053711 242.83496094 C-395.01558693 234.2266117 -390.02828503 225.59135547 -385.05249023 216.94873047 C-384.47055908 215.9382666 -383.88862793 214.92780273 -383.2890625 213.88671875 C-382.72340576 212.89623535 -382.15774902 211.90575195 -381.57495117 210.88525391 C-380.35658452 208.79696365 -379.10135522 206.72991178 -377.81762695 204.68115234 C-377.175271 203.64297363 -376.53291504 202.60479492 -375.87109375 201.53515625 C-375.28440918 200.6117041 -374.69772461 199.68825195 -374.09326172 198.73681641 C-372.058428 194.1699181 -372.69672296 189.75092016 -373.3359375 184.90625 C-379.58639406 127.67587918 -360.57936857 69.48080799 -325.27587891 24.66943359 C-322.34663012 21.06005812 -319.22853928 17.64296041 -316.046875 14.25390625 C-314.06351701 12.13508248 -312.18400685 9.96631824 -310.31640625 7.74609375 C-276.95667687 -30.41248301 -222.39817373 -53.39400566 -172.77954102 -57.94799805 C-108.00833095 -61.90247334 -48.87895487 -43.0236267 0 0 Z M-188.81640625 -31.12890625 C-190.04907227 -30.87149658 -190.04907227 -30.87149658 -191.30664062 -30.60888672 C-219.62694181 -24.48158258 -245.31413167 -13.08288123 -268.81640625 3.87109375 C-269.71117676 4.50337891 -269.71117676 4.50337891 -270.62402344 5.1484375 C-292.36010549 20.63709699 -310.75079369 41.66072413 -323.81640625 64.87109375 C-324.39769287 65.89444824 -324.39769287 65.89444824 -324.99072266 66.93847656 C-340.37937854 94.25739356 -351.77866827 127.1164472 -350.81640625 158.87109375 C-347.89351503 155.36716768 -345.4730334 151.80103013 -343.171875 147.86328125 C-342.83899979 147.29715118 -342.50612457 146.73102112 -342.16316223 146.1477356 C-341.10635673 144.34933902 -340.05476042 142.54797322 -339.00390625 140.74609375 C-337.62500062 138.38778755 -336.24325125 136.03117383 -334.859375 133.67578125 C-334.52340302 133.10245056 -334.18743103 132.52911987 -333.84127808 131.93841553 C-331.04771371 127.19801042 -328.09009235 122.57670736 -325.05981445 117.98486328 C-323.64739809 115.99251041 -323.64739809 115.99251041 -323.81640625 113.87109375 C-317.54640625 117.83109375 -311.27640625 121.79109375 -304.81640625 125.87109375 C-305.76276735 130.60289924 -307.12443101 133.30095869 -309.69140625 137.18359375 C-315.91802567 146.87416064 -321.76759734 156.78403529 -327.61010742 166.70898438 C-328.43129862 168.10297019 -329.25266793 169.4968511 -330.07421875 170.890625 C-330.47697525 171.5740799 -330.87973175 172.25753479 -331.29469299 172.96170044 C-333.78001192 177.16377205 -336.32869624 181.3163001 -338.93359375 185.4453125 C-339.54291748 186.42612793 -340.15224121 187.40694336 -340.7800293 188.41748047 C-341.88673806 190.19329271 -343.01178395 191.95788068 -344.15942383 193.70751953 C-346.74402317 197.89860052 -348.1052212 201.03035701 -348.00102228 206.00312847 C-347.98095701 206.97029863 -347.96089175 207.93746879 -347.94021844 208.93394714 C-347.7488188 213.47444352 -347.42911581 217.99285372 -347.03833103 222.520257 C-346.9121524 224.04674011 -346.9121524 224.04674011 -346.78342471 225.60406128 C-346.50159276 229.00009428 -346.21326333 232.39554315 -345.92494202 235.79103088 C-345.71902484 238.25587085 -345.51350929 240.72074439 -345.30836004 243.18564838 C-344.86199847 248.53762928 -344.41280671 253.88936132 -343.9610939 259.24089241 C-343.289389 267.19888585 -342.62295389 275.15731453 -341.95757197 283.11583883 C-340.83777833 296.50768096 -339.71371229 309.89916127 -338.58717537 323.2904377 C-337.47149334 336.55279344 -336.35764162 349.81530075 -335.24624443 363.07801628 C-335.14248611 364.31617875 -335.14248611 364.31617875 -335.03663166 365.5793546 C-334.68531606 369.77175304 -334.3340313 373.96415407 -333.98275726 378.156556 C-331.49524287 407.84386036 -329.00336714 437.53079721 -326.5090332 467.2175293 C-324.08817732 496.02981477 -321.66969389 524.84229794 -319.25415039 553.6550293 C-319.17973066 554.54270326 -319.10531093 555.43037721 -319.02863605 556.34495038 C-318.42991664 563.4864509 -317.83120701 570.62795224 -317.23251494 577.76945505 C-314.64847808 608.59312698 -312.06270777 639.4166535 -309.47643065 670.24013753 C-309.05874769 675.2181354 -308.64109204 680.19613557 -308.22345834 685.17413758 C-306.69038748 703.44753442 -305.15677169 721.7208853 -303.62141807 739.9940905 C-303.01535243 747.20734751 -302.40951085 754.42062313 -301.80438232 761.63395882 C-301.25054975 768.23579671 -300.6959103 774.83756646 -300.14069515 781.43928825 C-299.93986509 783.82873506 -299.73930174 786.2182043 -299.53903068 788.60769803 C-299.26686509 791.85445169 -298.99371716 795.10112127 -298.72032261 798.34777164 C-298.64273235 799.27615141 -298.56514209 800.20453118 -298.48520061 801.16104367 C-298.33932653 802.88861438 -298.18764284 804.61570752 -298.02926738 806.34217704 C-297.88084965 808.10546789 -297.7666228 809.87182684 -297.67870294 811.63916736 C-297.62300176 812.53087159 -297.56730058 813.42257581 -297.50991148 814.34130138 C-297.47166166 815.13966515 -297.43341184 815.93802893 -297.39400294 816.76058554 C-296.62323312 819.5769383 -295.24063701 820.36341055 -292.81640625 821.87109375 C-293.36364308 825.2457209 -293.87130625 826.95344375 -295.81640625 829.87109375 C-295.96804087 832.07477162 -295.96804087 832.07477162 -295.70448303 834.53987122 C-295.62832071 835.50882387 -295.55215839 836.47777653 -295.47368813 837.47609138 C-295.37803755 838.54721609 -295.28238697 839.6183408 -295.18383789 840.72192383 C-295.09081579 841.86427931 -294.99779369 843.00663479 -294.90195274 844.1836071 C-294.63913561 847.38452648 -294.3662939 850.58441717 -294.08945727 853.78414893 C-293.79079849 857.26459128 -293.50495037 860.74608684 -293.2177887 864.22749329 C-292.70636325 870.40986481 -292.18735553 876.59156565 -291.66485596 882.77301025 C-290.77423082 893.32146261 -289.9133857 903.87228804 -289.05419922 914.42333984 C-287.63580479 931.82628776 -286.19783587 949.22753948 -284.74619102 966.62774467 C-283.90815537 976.67568679 -283.0746644 986.72396373 -282.25219727 996.77319336 C-281.51852912 1005.73743237 -280.77664012 1014.70094643 -280.02490288 1023.66368896 C-279.63228156 1028.34774955 -279.24336284 1033.03203958 -278.86443901 1037.71722984 C-275.4488405 1079.87063961 -269.11880505 1119.51512034 -236.06640625 1149.37109375 C-234.66191552 1150.55239022 -233.24410436 1151.71795297 -231.81640625 1152.87109375 C-230.52476562 1153.91910156 -230.52476562 1153.91910156 -229.20703125 1154.98828125 C-202.47293981 1175.8697743 -169.6188282 1185.01067547 -135.85546875 1181.41015625 C-103.91130615 1177.27215857 -72.79812927 1160.3222665 -52.81640625 1134.87109375 C-39.24869925 1116.94627759 -30.41663595 1096.53475297 -27.31388855 1074.27745056 C-27.12239394 1072.91483861 -27.12239394 1072.91483861 -26.92703074 1071.52469915 C-25.49171181 1060.96355254 -24.60081125 1050.36431442 -23.73168945 1039.74438477 C-23.54457845 1037.51455378 -23.35692999 1035.28476783 -23.16879272 1033.05502319 C-22.66545062 1027.07097521 -22.16969986 1021.08632142 -21.67557168 1015.10150647 C-21.15525232 1008.81398071 -20.62823546 1002.52701593 -20.10209656 996.23997498 C-19.22136764 985.70419125 -18.3452727 975.16802963 -17.47241211 964.6315918 C-16.57556795 953.80571824 -15.67468141 942.98019119 -14.76928711 932.1550293 C-14.71332236 931.48589091 -14.65735762 930.81675253 -14.59969697 930.12733722 C-14.543824 929.45930633 -14.48795103 928.79127543 -14.43038493 928.10300118 C-14.31787047 926.75773449 -14.20535778 925.41246765 -14.09284687 924.06720066 C-14.009601 923.07185515 -14.009601 923.07185515 -13.9246734 922.05640164 C-13.00647998 911.07569206 -12.0925256 900.09462909 -11.17856956 889.11356616 C-10.86732887 885.37669732 -10.5554403 881.63988299 -10.243433 877.90307808 C-9.75427247 872.04181841 -9.26770486 866.18034897 -8.78315353 860.31870651 C-8.60501681 858.16837356 -8.42603996 856.01811002 -8.24616432 853.86792183 C-8.00097785 850.93516934 -7.75885699 848.00217948 -7.51753235 845.06910706 C-7.44565069 844.21766336 -7.37376903 843.36621966 -7.29970914 842.48897463 C-6.20744187 833.59962991 -6.20744187 833.59962991 -9.81640625 825.87109375 C-9.81640625 824.55109375 -9.81640625 823.23109375 -9.81640625 821.87109375 C-9.17442053 821.39813566 -8.53243482 820.92517758 -7.87099499 820.43788743 C-5.62024741 819.04544942 -5.62024741 819.04544942 -5.16520983 816.59008384 C-5.05520928 815.2101778 -5.05520928 815.2101778 -4.94298649 813.80239487 C-4.84623062 812.71100212 -4.74947475 811.61960938 -4.64978689 810.49514413 C-4.51365408 808.64078417 -4.51365408 808.64078417 -4.37477112 806.7489624 C-4.26068074 805.38637777 -4.14473873 804.02394722 -4.02718407 802.66165709 C-3.75931912 799.52309993 -3.50272913 796.38384434 -3.25243306 793.24383831 C-2.78293634 787.39620159 -2.27030019 781.55259325 -1.75535393 775.7088089 C-0.62235155 762.81633979 0.48476687 749.92171888 1.58710778 737.02659708 C2.00615629 732.12471756 2.42603204 727.2229094 2.84634781 722.32113838 C7.49484827 668.10634123 12.09880565 613.88774391 16.68752658 559.66785718 C17.34966056 551.84447158 18.01206039 544.0211085 18.67456055 536.19775391 C18.74774373 535.33347876 18.82092692 534.4692036 18.89632778 533.5787383 C21.27513779 505.48754153 23.67731474 477.3984033 26.09176238 449.31024899 C28.5791574 420.37211901 31.04411735 391.43216539 33.48042864 362.48968763 C33.82432 358.40448119 34.16846226 354.31929591 34.51275444 350.23412323 C34.61436356 349.02833343 34.61436356 349.02833343 34.71802538 347.79818424 C35.80785697 334.87295647 36.9212106 321.9498586 38.04337941 309.0274027 C39.16932448 296.055471 40.27018639 283.08160377 41.34546138 270.10537192 C41.98470172 262.4003095 42.64303275 254.69743848 43.32890274 246.99638376 C43.83889073 241.24623513 44.31291094 235.49357219 44.77302676 229.73923895 C44.96470176 227.41258327 45.16802718 225.086852 45.38414276 222.76233914 C47.20365542 206.33009157 47.20365542 206.33009157 40.18359375 191.87109375 C39.53285889 190.72713135 38.88212402 189.58316895 38.21166992 188.40454102 C37.63908447 187.42541748 37.06649902 186.44629395 36.4765625 185.4375 C35.81551514 184.30707275 35.15446777 183.17664551 34.47338867 182.01196289 C33.77284514 180.81904311 33.07207481 179.62625649 32.37109375 178.43359375 C32.00964264 177.81757294 31.64819153 177.20155212 31.27578735 176.56686401 C25.54851399 166.81072852 19.74064071 157.10474836 13.87109375 147.43359375 C13.51115326 146.83990997 13.15121277 146.2462262 12.78036499 145.634552 C8.52401464 138.57056336 8.52401464 138.57056336 3.96411133 131.70288086 C2.18359375 128.87109375 2.18359375 128.87109375 2.18359375 125.87109375 C3.8359375 124.52075195 3.8359375 124.52075195 6.12109375 123.171875 C6.93320312 122.68525391 7.7453125 122.19863281 8.58203125 121.69726562 C9.44054687 121.19775391 10.2990625 120.69824219 11.18359375 120.18359375 C12.04210937 119.67248047 12.900625 119.16136719 13.78515625 118.63476562 C15.91234856 117.37026797 18.04509366 116.11634033 20.18359375 114.87109375 C23.10648497 118.37501982 25.5269666 121.94115737 27.828125 125.87890625 C28.16100021 126.44503632 28.49387543 127.01116638 28.83683777 127.5944519 C29.89364327 129.39284848 30.94523958 131.19421428 31.99609375 132.99609375 C39.25818149 145.64373393 39.25818149 145.64373393 47.18359375 157.87109375 C47.51359375 157.87109375 47.84359375 157.87109375 48.18359375 157.87109375 C46.86132676 108.02162826 25.76252162 62.66967312 -7.62890625 26.30859375 C-8.13147949 25.76106445 -8.63405273 25.21353516 -9.15185547 24.64941406 C-36.59691494 -4.59546823 -75.00921516 -23.02435567 -113.81640625 -31.12890625 C-114.6671875 -31.30824707 -115.51796875 -31.48758789 -116.39453125 -31.67236328 C-139.60232311 -36.3240843 -165.68449362 -35.97563774 -188.81640625 -31.12890625 Z M66.18359375 237.87109375 C64.46719183 250.56494993 63.28306543 263.2774153 62.203125 276.0390625 C62.02429994 278.13414634 61.84539941 280.22922374 61.66642761 282.32429504 C61.29524027 286.67995226 60.92672353 291.03582613 60.55981445 295.3918457 C60.08933223 300.97186941 59.60932411 306.55103071 59.12704945 312.13004589 C58.75595567 316.44043653 58.39122754 320.75134843 58.02829552 325.06243324 C57.85395034 327.1211116 57.67730566 329.17959658 57.49830055 331.23787498 C57.2497505 334.10362191 57.0101175 336.96998181 56.77270508 339.83666992 C56.69744598 340.68187698 56.62218689 341.52708405 56.54464722 342.39790344 C55.84172537 349.43349467 55.84172537 349.43349467 58.6015625 355.6875 C59.18550781 356.26371094 59.76945313 356.83992188 60.37109375 357.43359375 C73.69836317 372.01712217 76.55578707 393.43788954 76.49926758 412.40332031 C76.49611818 414.60402547 76.5196142 416.80336709 76.54492188 419.00390625 C76.63690601 439.45313805 71.84716855 460.68523926 57.8984375 476.3359375 C54.72156835 479.17992287 50.9997534 481.02407248 47.18359375 482.87109375 C46.52359375 483.20109375 45.86359375 483.53109375 45.18359375 483.87109375 C44.67949532 486.36494833 44.67949532 486.36494833 44.47166443 489.45581055 C44.36333471 490.681427 44.255005 491.90704346 44.14339256 493.1697998 C44.03089453 494.55329055 43.91856917 495.93679534 43.80639648 497.3203125 C43.68065924 498.7853477 43.55409208 500.25031187 43.42676735 501.71520996 C43.07487467 505.79275369 42.73506229 509.87123163 42.39706349 513.94994736 C42.02760901 518.38362974 41.64730222 522.81638296 41.26841736 527.24926758 C40.59553098 535.14089948 39.93013617 543.03313777 39.26922607 550.92578125 C38.52797712 559.77774013 37.78207295 568.62929082 37.03155518 577.48046875 C36.93391534 578.63199841 36.8362755 579.78352808 36.73567688 580.96995258 C36.53578597 583.32718594 36.33588754 585.68441867 36.1359818 588.04165077 C34.02833026 612.90213371 31.93944647 637.76417004 29.8580395 662.62686253 C29.75237426 663.88904574 29.64670902 665.15122896 29.5378418 666.45166016 C29.43201196 667.71588019 29.32618212 668.98010023 29.21714532 670.28262997 C28.34216007 680.73166372 27.46350024 691.18038643 26.58417803 701.62905598 C25.7239347 711.85301726 24.86623684 722.07719003 24.01052755 732.30153179 C23.50469879 738.34482029 22.99785225 744.38801896 22.48835945 750.43099976 C22.01503297 756.04594917 21.54487057 761.66115455 21.07716751 767.27657509 C20.90578168 769.32777815 20.7332636 771.37888699 20.55951881 773.42989159 C20.32253168 776.22954355 20.08966093 779.02950907 19.85780334 781.82958984 C19.78865017 782.6349628 19.71949699 783.44033575 19.64824826 784.27011395 C19.24919198 789.15497277 19.12346533 793.96969908 19.18359375 798.87109375 C21.52041804 796.87505633 23.85349348 794.8749595 26.18359375 792.87109375 C26.80258041 792.3408812 27.42156708 791.81066864 28.05931091 791.26438904 C32.79583797 787.16951469 37.29933033 782.90221988 41.71875 778.46875 C42.74227821 777.44665688 42.74227821 777.44665688 43.78648376 776.40391541 C45.21703812 774.97403634 46.64635142 773.54291464 48.07446289 772.1105957 C50.24058449 769.93911664 52.41199549 767.7730305 54.58398438 765.60742188 C55.98339362 764.20735173 57.38249259 762.80697137 58.78125 761.40625 C59.4199855 760.76953873 60.05872101 760.13282745 60.71681213 759.4768219 C64.52817697 755.64590023 68.15535855 751.7010338 71.6844635 747.6083374 C73.60133714 745.38699835 75.5789808 743.22403244 77.55859375 741.05859375 C82.28930877 735.80933492 86.75443069 730.37550379 91.18359375 724.87109375 C92.09733817 723.74974073 93.01141514 722.62865864 93.92578125 721.5078125 C125.79206925 682.27951652 153.20237973 638.79784745 172.18359375 591.87109375 C172.50908203 591.06833008 172.83457031 590.26556641 173.16992188 589.43847656 C181.21025296 569.3208632 186.82818844 548.26344315 190.18359375 526.87109375 C190.3007373 526.1450293 190.41788086 525.41896484 190.53857422 524.67089844 C193.91143271 502.91019773 193.12919233 480.47837753 189.18359375 458.87109375 C188.98636719 457.60136719 188.78914062 456.33164062 188.5859375 455.0234375 C186.177948 443.14139093 179.35002716 433.38668096 173.14208984 423.15820312 C169.8530846 417.6379879 166.77537413 412.00337244 163.68359375 406.37109375 C158.95934958 397.80417169 154.14434974 389.30325912 149.18359375 380.87109375 C144.22279938 372.43886315 139.41011171 363.93680372 134.68359375 355.37109375 C129.42011995 345.83667918 124.03497001 336.38728616 118.52124023 326.99560547 C114.04121287 319.36017873 109.62987391 311.68704031 105.24609375 303.99609375 C98.23995641 291.70868885 91.18513897 279.45003572 84.10839844 267.203125 C80.99163508 261.80769295 77.87850559 256.41016522 74.76516724 251.01275635 C73.15608962 248.22326444 71.54678613 245.43390286 69.9375 242.64453125 C69.01953125 241.05338542 68.1015625 239.46223958 67.18359375 237.87109375 C66.85359375 237.87109375 66.52359375 237.87109375 66.18359375 237.87109375 Z M-369.81640625 238.87109375 C-377.59871334 252.0186149 -385.24131398 265.24500748 -392.86523438 278.48486328 C-394.75809762 281.76989997 -396.65383332 285.05325811 -398.55078125 288.3359375 C-407.0111589 302.97864125 -415.41857314 317.65106268 -423.80029297 332.33886719 C-426.80390128 337.60185903 -429.81107201 342.86281491 -432.81796265 348.12393188 C-433.8160795 349.87052197 -434.81395969 351.61724706 -435.81176758 353.36401367 C-438.82775455 358.64352383 -441.84492748 363.92234013 -444.86767578 369.19798279 C-452.23818513 382.06205114 -459.56318817 394.94927872 -466.78930664 407.89526367 C-471.08589468 415.58679366 -475.43618647 423.24620499 -479.82324219 430.88647461 C-480.72327358 432.45480333 -481.61995885 434.02505809 -482.51293945 435.59741211 C-483.38788812 437.12361494 -484.2799891 438.64010171 -485.18823242 440.14672852 C-488.21262293 445.27981748 -489.92240714 449.96119781 -491.00390625 455.80859375 C-491.24415527 457.04065552 -491.24415527 457.04065552 -491.48925781 458.29760742 C-501.20671553 509.97726416 -488.77510463 562.21501581 -467.00585938 609.29833984 C-465.86814753 611.7591788 -464.75463757 614.22973911 -463.64453125 616.703125 C-444.40279792 659.01117224 -416.40867853 698.05680677 -386.22119141 733.22802734 C-384.80041443 734.88979812 -383.39137872 736.56093353 -381.984375 738.234375 C-370.27928734 752.10992939 -357.69067706 765.08581051 -344.87890625 777.93359375 C-344.34061188 778.47456696 -343.8023175 779.01554016 -343.24771118 779.57290649 C-333.65439958 790.43426265 -333.65439958 790.43426265 -321.81640625 797.87109375 C-322.42793309 781.95975001 -323.60595066 766.12288058 -324.94684458 750.25783193 C-325.24134048 746.76339448 -325.53142456 743.26859009 -325.82211304 739.77383423 C-326.38935752 732.96246886 -326.96056353 726.15144154 -327.53322005 719.34052927 C-328.20100146 711.39662399 -328.86490265 703.45239578 -329.5287143 695.50815796 C-330.71294887 681.33745056 -331.90087272 667.16705487 -333.09082031 652.99682617 C-334.24425368 639.26140257 -335.3946916 625.52573216 -336.54199219 611.78979492 C-337.79477522 596.79103474 -339.04909732 581.79240486 -340.30619717 566.79400581 C-340.44016481 565.19563196 -340.57413221 563.59725809 -340.70809937 561.9988842 C-340.77400231 561.21262357 -340.83990526 560.42636294 -340.90780526 559.61627622 C-341.37154163 554.08253078 -341.83422651 548.54869799 -342.29653931 543.01483345 C-342.85921155 536.2802537 -343.42370245 529.54582923 -343.99049306 522.81159479 C-344.27944568 519.37798049 -344.5676171 515.94430549 -344.85364914 512.51044655 C-345.16406211 508.789081 -345.47750973 505.06798328 -345.79174805 501.34693909 C-345.88153584 500.26203849 -345.97132364 499.17713789 -346.06383228 498.05936152 C-346.60078241 490.91561067 -346.60078241 490.91561067 -347.81640625 483.87109375 C-349.67364982 482.22862626 -349.67364982 482.22862626 -352.06640625 481.24609375 C-352.88367188 480.83488281 -353.7009375 480.42367187 -354.54296875 480 C-355.29320312 479.62746094 -356.0434375 479.25492188 -356.81640625 478.87109375 C-369.11104245 470.96739905 -374.04052578 454.21066879 -377.2734375 440.75 C-382.15483483 414.86805877 -380.83740641 383.48135003 -365.87890625 360.953125 C-363.67665595 358.06725951 -361.38160175 355.43628925 -358.81640625 352.87109375 C-358.78577083 350.24931742 -358.88127496 347.75962561 -359.08032227 345.15258789 C-359.13330003 344.35527032 -359.18627779 343.55795275 -359.24086094 342.73647404 C-359.41982722 340.11358516 -359.61626159 337.492447 -359.81640625 334.87109375 C-359.88101421 334.00237011 -359.94562218 333.13364647 -360.01218796 332.23859787 C-360.5079616 325.61217506 -361.04617681 318.98950532 -361.59375 312.3671875 C-361.72102069 310.82168056 -361.72102069 310.82168056 -361.8508625 309.24495125 C-362.29766592 303.82296954 -362.74754324 298.40125314 -363.19995117 292.97973633 C-363.66652153 287.38048091 -364.12178673 281.78036241 -364.57474422 276.17999172 C-364.9261973 271.86024762 -365.28599549 267.54122843 -365.64813423 263.22236824 C-365.81996062 261.15526481 -365.98857371 259.08789171 -366.15394402 257.02026176 C-366.38405067 254.15257881 -366.62592603 251.28612764 -366.87084961 248.41967773 C-366.93689392 247.56323166 -367.00293823 246.70678558 -367.07098389 245.8243866 C-367.24743087 243.83225908 -367.52154115 241.84916355 -367.81640625 239.87109375 C-368.80640625 239.37609375 -368.80640625 239.37609375 -369.81640625 238.87109375 Z M-354.81640625 406.87109375 C-354.87538994 410.32935311 -354.91032756 413.78747995 -354.94140625 417.24609375 C-354.95816406 418.21160156 -354.97492188 419.17710937 -354.9921875 420.171875 C-355.03565461 426.64847418 -354.34873296 432.57767075 -352.81640625 438.87109375 C-352.48640625 438.87109375 -352.15640625 438.87109375 -351.81640625 438.87109375 C-352.55585275 422.85385405 -352.55585275 422.85385405 -353.81640625 406.87109375 C-354.14640625 406.87109375 -354.47640625 406.87109375 -354.81640625 406.87109375 Z M51.18359375 408.87109375 C50.84539509 412.72484952 50.51391044 416.57915503 50.18359375 420.43359375 C50.08820312 421.51962891 49.9928125 422.60566406 49.89453125 423.72460938 C49.43472406 429.12734385 49.05911844 434.44863787 49.18359375 439.87109375 C54.08240885 431.65837431 53.53044169 419.13964143 53.18359375 409.87109375 C52.52359375 409.54109375 51.86359375 409.21109375 51.18359375 408.87109375 Z " fill="#FBFBFB" transform="translate(667.81640625,425.12890625)"/>
<path d="M0 0 C71.94 0 143.88 0 218 0 C218 7.92 218 15.84 218 24 C146.06 24 74.12 24 0 24 C0 16.08 0 8.16 0 0 Z " fill="#F4F4F4" transform="translate(408,641)"/>
<path d="M0 0 C66.33 0 132.66 0 201 0 C201 7.92 201 15.84 201 24 C134.67 24 68.34 24 0 24 C0 16.08 0 8.16 0 0 Z " fill="#F4F4F4" transform="translate(416,714)"/>
<path d="M0 0 C61.05 0 122.1 0 185 0 C185 7.92 185 15.84 185 24 C123.95 24 62.9 24 0 24 C0 16.08 0 8.16 0 0 Z " fill="#F4F4F4" transform="translate(424,787)"/>
<path d="M0 0 C55.44 0 110.88 0 168 0 C168 7.92 168 15.84 168 24 C112.56 24 57.12 24 0 24 C0 16.08 0 8.16 0 0 Z " fill="#F4F4F4" transform="translate(433,860)"/>
<path d="M0 0 C49.83 0 99.66 0 151 0 C151 7.92 151 15.84 151 24 C101.17 24 51.34 24 0 24 C0 16.08 0 8.16 0 0 Z " fill="#F4F4F4" transform="translate(441,932)"/>
<path d="M0 0 C44.55 0 89.1 0 135 0 C135 7.92 135 15.84 135 24 C90.45 24 45.9 24 0 24 C0 16.08 0 8.16 0 0 Z " fill="#F4F4F4" transform="translate(449,1005)"/>
<path d="M0 0 C39.27 0 78.54 0 119 0 C119 7.92 119 15.84 119 24 C79.73 24 40.46 24 0 24 C0 16.08 0 8.16 0 0 Z " fill="#F4F4F4" transform="translate(457,1078)"/>
<path d="M0 0 C33.66 0 67.32 0 102 0 C102 7.92 102 15.84 102 24 C68.34 24 34.68 24 0 24 C0 16.08 0 8.16 0 0 Z " fill="#F4F4F4" transform="translate(466,1150)"/>
<path d="M0 0 C28.05 0 56.1 0 85 0 C85 7.92 85 15.84 85 24 C56.95 24 28.9 24 0 24 C0 16.08 0 8.16 0 0 Z " fill="#F4F4F4" transform="translate(474,1223)"/>
<path d="M0 0 C22.77 0 45.54 0 69 0 C69 7.92 69 15.84 69 24 C46.23 24 23.46 24 0 24 C0 16.08 0 8.16 0 0 Z " fill="#F4F4F4" transform="translate(482,1296)"/>
</svg>
