<?xml version="1.0" encoding="UTF-8"?>
<svg version="1.1" xmlns="http://www.w3.org/2000/svg" width="4630" height="1974">
<path d="M0 0 C159.06 0 318.12 0 482 0 C487 42 487 42 489.21875 61.1015625 C499.8244671 152.32854906 512.48546773 243.26891617 529.68432617 349.43603516 C531.81261634 362.46157482 533.82770672 375.49173044 535.65786743 388.56234741 C541.27468752 428.58150164 549.44810041 468.22833567 557.70263672 507.77392578 C558.59070267 512.02884534 559.47205837 516.28507819 560.34814453 520.54248047 C576.55809153 629.49722044 576.55809153 629.49722044 625.75 722.3125 C629.66578573 724.34569644 632.74003028 725.15524603 637 724 C669.30489852 705.22239168 680.3644424 626.47260496 689 594 C697.58737499 561.52625046 703.92463342 528.51733312 710.48353577 495.58843994 C712.23931654 486.77695883 714.02332678 477.97188147 715.8359375 469.171875 C719.99023725 448.94265706 723.86710316 428.69666084 727.1875 408.3125 C727.40499908 406.97910583 727.40499908 406.97910583 727.62689209 405.61877441 C730.15722743 389.99759215 732.44300252 374.33871474 734.76418495 358.68546295 C736.91616358 344.17963547 739.11421394 329.68188078 741.3671875 315.19140625 C755.59437926 223.58563457 768.4997887 131.80290036 780.44335938 39.87304688 C780.67184822 38.11581944 780.67184822 38.11581944 780.904953 36.32309246 C781.61725048 30.84373726 782.32764575 25.36415185 783.03369141 19.88398743 C783.28218725 17.9653778 783.53072009 16.04677297 783.77929688 14.12817383 C783.94429813 12.83850456 783.94429813 12.83850456 784.11263275 11.52278137 C784.21560921 10.73041077 784.31858566 9.93804016 784.42468262 9.12165833 C784.55610279 8.10134632 784.55610279 8.10134632 784.69017792 7.06042194 C785.04610261 4.69340201 785.53057049 2.34714757 786 0 C951.99 0 1117.98 0 1289 0 C1289 34.83815011 1288.98742038 69.65866925 1288.65102959 104.49232769 C1288.09646753 163.98653728 1287.89243765 223.47869257 1287.87060547 282.9753418 C1287.8702412 283.94297805 1287.86987694 284.91061429 1287.86950164 285.90757285 C1287.86014529 311.41417564 1287.86066871 336.9207756 1287.86470055 362.42737938 C1287.86705328 377.61576414 1287.86728108 392.80414784 1287.86618423 407.99253273 C1287.86610785 409.09005812 1287.86603146 410.1875835 1287.86595276 411.31836724 C1287.86564121 415.77822446 1287.86532279 420.23808168 1287.864993 424.6979389 C1287.86196979 466.08028385 1287.86465149 507.46262659 1287.8700899 548.8449712 C1287.87484874 585.3339045 1287.8743923 621.82283431 1287.86962891 658.31176758 C1287.86424106 699.71814061 1287.86216778 741.12451171 1287.86524117 782.53088504 C1287.86556171 786.96461379 1287.86587456 791.39834255 1287.86618423 795.8320713 C1287.86626331 796.92304658 1287.86634239 798.01402186 1287.86642386 799.138057 C1287.86754604 815.38105208 1287.86626063 831.62404575 1287.86370468 847.86704063 C1287.86080908 866.35575378 1287.86163665 884.84446296 1287.86698543 903.33317562 C1287.86961128 912.71125054 1287.87083378 922.08931906 1287.86733627 931.46739388 C1287.85430869 968.8974674 1287.97356407 1006.32187927 1288.4193779 1043.74961746 C1288.45044527 1046.36052003 1288.48084241 1048.97142983 1288.51121067 1051.58234062 C1288.87659808 1082.57472679 1289.66786336 1113.54737676 1290.71563721 1144.52410889 C1290.90970015 1150.28658049 1291.10060345 1156.04914508 1291.28826904 1161.81182861 C1291.31230222 1162.54960415 1291.3363354 1163.28737968 1291.36109686 1164.04751205 C1291.40997394 1165.54804002 1291.45884926 1167.04856803 1291.50772285 1168.54909611 C1291.93208807 1181.56339586 1292.36442561 1194.57742226 1292.80126953 1207.59130859 C1294.61083287 1261.50631147 1296.35328285 1315.4203321 1297.79846191 1369.34655762 C1298.39456246 1391.56653041 1299.02881199 1413.78306441 1299.84765625 1435.99609375 C1299.8830526 1436.95639244 1299.91844894 1437.91669113 1299.95491791 1438.90608978 C1300.28828954 1447.91280528 1300.63027423 1456.91914742 1300.9893465 1465.92487621 C1301.11558456 1469.10266607 1301.23887304 1472.28056738 1301.36190605 1475.45848274 C1301.44430679 1477.55104254 1301.5315104 1479.64335715 1301.61915588 1481.73570251 C1302.06415937 1493.18312989 1302 1504.51211793 1302 1516 C1206.63 1516 1111.26 1516 1013 1516 C1012.67 1470.46 1012.34 1424.92 1012 1378 C1011.57771278 1338.72728819 1010.93322607 1299.50659379 1009.86401367 1260.25427246 C1009.23012722 1236.91228882 1008.82279338 1213.57800077 1008.60992432 1190.22851562 C1008.25525225 1151.39542827 1007.52554479 1112.57375592 1006.625 1073.75 C1006.60885635 1073.05270011 1006.5927127 1072.35540023 1006.57607985 1071.63697004 C1005.72522246 1034.9361725 1004.67629469 998.26293011 1002.80085754 961.59854126 C1002.74153549 960.43680389 1002.68221344 959.27506653 1002.62109375 958.078125 C1002.56390671 956.96061859 1002.50671967 955.84311218 1002.44779968 954.69174194 C1001.88518344 943.34037645 1001.63685598 931.98768805 1001.4375 920.625 C1000.77156353 884.08736444 998.60839903 847.71990153 995.85253906 811.28686523 C995.64081161 808.48034079 995.42962567 805.67377606 995.21875 802.8671875 C995.16699364 802.18014551 995.11523727 801.49310352 995.06191254 800.78524208 C994.12180573 788.25030452 993.35606405 775.70785416 992.67175293 763.15646362 C992.29872244 756.40818736 991.84137971 749.70787195 991 743 C964.68323915 785.41448722 953.03597522 834.68641548 940.88671875 882.57617188 C939.63233298 887.51983183 938.36921609 892.46112036 937.09765625 897.40039062 C913.68353459 988.37821912 897.30429453 1080.92768842 840.6262207 1487.76147461 C840.49475852 1488.93970448 840.49475852 1488.93970448 840.36064053 1490.14173698 C839.95525159 1493.77533606 839.55185313 1497.40912188 839.15367126 1501.04351807 C839.01498123 1502.29332458 838.8762912 1503.5431311 838.73339844 1504.83081055 C838.61494568 1505.9094487 838.49649292 1506.98808685 838.37445068 1508.09941101 C838.03220966 1510.75049592 837.52423498 1513.37882511 837 1516 C715.89 1516 594.78 1516 470 1516 C467.69766275 1486.06961577 467.69766275 1486.06961577 467 1471.32421875 C466.91825605 1469.65312821 466.83621553 1467.98205217 466.75390625 1466.31098938 C466.58375091 1462.84194978 466.41587155 1459.37281149 466.25 1455.90356445 C466.04476339 1451.61103272 465.83566841 1447.31870174 465.62497139 1443.0264349 C465.41525651 1438.7507637 465.20754035 1434.47499597 465 1430.19921875 C464.95812687 1429.33905592 464.91625374 1428.47889309 464.87311172 1427.59266472 C464.39672057 1417.77615455 463.95077893 1407.95946308 463.56591797 1398.13891602 C462.48668751 1370.95470432 460.6208891 1343.88142297 458.3873291 1316.76885986 C458.03640854 1312.47967652 457.69506572 1308.1897521 457.35358143 1303.89980888 C453.81452689 1259.50548943 448.8116221 1215.35621129 443.5269165 1171.1385498 C442.75631725 1164.68633817 441.9886137 1158.23378208 441.22070312 1151.78125 C440.32155401 1144.2265547 439.42174336 1136.67194125 438.51847839 1129.11773682 C437.1879758 1117.98849358 435.86272362 1106.85878261 434.56567383 1095.72558594 C431.53420977 1069.67282861 431.53420977 1069.67282861 427.5625 1043.75 C427.40547607 1042.81958893 427.24845215 1041.88917786 427.08666992 1040.93057251 C423.75899656 1021.28028957 419.89519025 1001.73151666 416 982.1875 C415.85537952 981.45994003 415.71075905 980.73238007 415.56175613 979.98277283 C408.80422235 945.99317331 401.1504385 912.39717205 391.67276001 879.05662918 C390.98593499 876.63796996 390.30198828 874.21851368 389.61889648 871.79879761 C386.64487666 861.26516469 383.64811861 850.73817564 380.63439941 840.21583557 C380.02539993 838.0887171 379.41733345 835.96133431 378.80957031 833.8338623 C371.19790477 807.200506 363.30436555 780.80563617 353.55755615 754.87034607 C350.1873909 745.88229944 346.99034187 736.83238077 343.7824707 727.78543091 C342.79663967 725.00647253 341.80790552 722.22856502 340.81835938 719.45092773 C335.79395988 705.32996259 330.88526182 691.16963386 326 677 C315.30707652 757.60698694 308.27843939 838.60320912 296.09570312 1131.04315186 C296.02089578 1134.94100887 295.94314032 1138.8387972 295.86376953 1142.73656368 C294.14948161 1226.95851952 294.43852221 1311.24787975 299.39038086 1485.7421875 C299.43141434 1486.7494841 299.47244781 1487.7567807 299.51472473 1488.79460144 C299.58922675 1490.61234853 299.66604838 1492.43000341 299.74613953 1494.24751282 C300.04415719 1501.5166919 300 1508.70199583 300 1516 C199.02 1516 98.04 1516 -6 1516 C-6 1502.50596633 -6 1502.50596633 -5.75634766 1497.63891602 C-5.70267029 1496.53299606 -5.64899292 1495.42707611 -5.59368896 1494.28764343 C-5.53441223 1493.12151016 -5.4751355 1491.95537689 -5.4140625 1490.75390625 C-5.32013186 1488.82068595 -5.22621176 1486.8874651 -5.13269806 1484.95422459 C-5.03325594 1482.90399312 -4.93268974 1480.85381898 -4.83197021 1478.8036499 C-3.6663659 1454.99984439 -2.65249087 1431.19490201 -1.875 1407.375 C-1.8367511 1406.23080597 -1.7985022 1405.08661194 -1.75909424 1403.90774536 C1.23151253 1313.69707719 1.78060713 1223.37115858 3.0625 1133.125 C3.07987376 1131.90217845 3.09724753 1130.6793569 3.11514777 1129.41948014 C4.62844953 1022.77475498 5.99323757 916.12777819 6.5625 640.4375 C6.56187073 639.21839916 6.56124146 637.99929831 6.56059313 636.74325502 C6.50472895 530.0593727 6.21550719 423.37632257 3.12421829 139.46585757 C3.0345297 133.40461373 2.94850218 127.34333351 2.86639404 121.28198242 C2.85618363 120.53369722 2.84597321 119.78541202 2.83545339 119.0144515 C2.79058619 115.7247752 2.7462453 112.43509607 2.70334053 109.14539337 C2.20642891 72.74735893 1.03979787 36.39292536 0 0 Z " fill="#373735" transform="translate(1209,216)"/>
<path d="M0 0 C76.75402509 -0.04026156 76.75402509 -0.04026156 100.51766968 -0.05130005 C101.78892546 -0.05189205 101.78892546 -0.05189205 103.08586319 -0.05249601 C131.64306701 -0.06575853 160.20027116 -0.07625468 188.75747681 -0.08468628 C189.69025833 -0.08496239 190.62303986 -0.08523851 191.58408749 -0.08552299 C211.86105439 -0.09151027 232.13802139 -0.09705042 252.41498854 -0.10213066 C262.3603179 -0.1046251 272.30564724 -0.10721824 282.25097656 -0.10986328 C283.24060115 -0.1101248 284.23022573 -0.11038632 285.24983894 -0.11065576 C317.26589349 -0.1191625 349.28194093 -0.13417314 381.29799118 -0.15259444 C414.22745935 -0.17150667 447.15692359 -0.18378176 480.0863971 -0.18782998 C484.74864447 -0.1884062 489.41089183 -0.18905747 494.07313919 -0.18975449 C495.44939322 -0.18995676 495.44939322 -0.18995676 496.85345036 -0.19016311 C511.56042077 -0.19251691 526.26737896 -0.20176683 540.9743444 -0.21366407 C555.79752019 -0.22550565 570.62068399 -0.22991931 585.44386433 -0.22700275 C593.46004429 -0.22562532 601.47619153 -0.22739266 609.49236488 -0.23841095 C671.70394436 -0.32061368 671.70394436 -0.32061368 699 2 C700.77455319 2.14537724 700.77455319 2.14537724 702.58495593 2.2936914 C709.87730613 2.89421019 717.15847702 3.56780747 724.4375 4.3125 C725.50087585 4.42015686 726.56425171 4.52781372 727.65985107 4.63873291 C781.69272179 10.16229017 833.93620283 25.77719117 877 60 C877.54011719 60.42297363 878.08023438 60.84594727 878.63671875 61.28173828 C893.57025585 73.05083253 907.38521275 86.96280767 919 102 C920.00501281 103.22083616 921.01450391 104.43799325 922.02734375 105.65234375 C929.10011055 114.15470124 935.63835917 122.86949177 941.73876953 132.09472656 C942.94872582 133.92254283 944.17443614 135.7389033 945.40234375 137.5546875 C975.97590611 183.26962728 985.25109578 242.16591415 989 296 C989.08757568 297.12019531 989.17515137 298.24039062 989.26538086 299.39453125 C990.34258016 314.4990972 990.18731559 329.654877 990.18530273 344.7890625 C990.18522211 347.98801404 990.19207491 351.18682042 990.20581055 354.38574219 C990.32111637 381.70243181 989.57612638 408.91598698 986.25 436.0625 C986.16763092 436.74593475 986.08526184 437.42936951 986.00039673 438.1335144 C979.71718426 489.75816369 964.63482605 540.98884724 933 583 C932.04287109 584.29744141 932.04287109 584.29744141 931.06640625 585.62109375 C890.98945671 637.30987575 835.33708121 652.53575575 773.875 663.875 C773.1229126 664.01429932 772.3708252 664.15359863 771.59594727 664.29711914 C759.44406023 666.53122666 747.23957827 668.31899765 735 670 C741.73578385 670.82170959 748.47209005 671.63903703 755.20874023 672.45361328 C757.49043218 672.72999761 759.77201201 673.00730936 762.0534668 673.28564453 C765.37257944 673.69039655 768.69201348 674.09232587 772.01171875 674.4921875 C773.10891235 674.62434662 774.20610596 674.75650574 775.33654785 674.89266968 C782.33501767 675.72177726 789.33552954 676.41400555 796.35546875 677.03125 C803.92848473 677.71305812 811.23348746 678.78627823 818.625 680.625 C819.69709717 680.88297363 820.76919434 681.14094727 821.8737793 681.40673828 C874.91883432 694.45533683 931.16351284 717.42155866 970 757 C971.22110898 758.20467567 972.44246303 759.40910297 973.6640625 760.61328125 C978.15636059 765.10933283 982.04892212 770.02866024 986 775 C986.78375 775.95519531 987.5675 776.91039062 988.375 777.89453125 C1022.39788654 820.36861556 1036.90289939 872.27480159 1038.46484375 925.96484375 C1038.54341978 928.41992828 1038.62220251 930.87500621 1038.70117188 933.33007812 C1038.81991825 937.12045265 1038.9367069 940.91086129 1039.04956055 944.70141602 C1039.59410972 962.79824722 1039.59410972 962.79824722 1041.02734375 980.83984375 C1042.40031032 994.32700965 1042.46295419 1007.8530374 1042.60169983 1021.39707947 C1042.62536572 1023.65996933 1042.65163206 1025.92281603 1042.67858887 1028.18566895 C1042.80515835 1038.91070062 1042.89949904 1049.63584389 1042.97990417 1060.36131287 C1043.00023829 1063.03128835 1043.02178835 1065.70125185 1043.0435791 1068.37121582 C1043.73627741 1154.43878409 1043.73627741 1154.43878409 1040.22784424 1187.79547119 C1039.9934258 1190.06360928 1039.77561385 1192.33283921 1039.56201172 1194.60302734 C1034.73567513 1245.59829459 1022.16523624 1295.28178899 1001 1342 C1000.28457031 1343.58337158 1000.28457031 1343.58337158 999.5546875 1345.19873047 C990.59244901 1364.85155356 980.63610924 1384.14461737 967 1401 C966.35933594 1401.83015625 965.71867187 1402.6603125 965.05859375 1403.515625 C952.39467668 1419.78683966 937.41027069 1435.5032898 921 1448 C920.4234668 1448.44762695 919.84693359 1448.89525391 919.25292969 1449.35644531 C880.72134586 1479.26780946 837.88860309 1499.56115328 790 1509 C789.02998047 1509.19287598 788.05996094 1509.38575195 787.06054688 1509.58447266 C780.0680592 1510.94018316 773.05295598 1512.01238045 766 1513 C765.0073155 1513.13901407 764.014631 1513.27802814 762.99186516 1513.42125475 C735.21715732 1517.07665503 707.19350326 1516.41365605 679.24070227 1516.35283331 C671.58886308 1516.33683007 663.93705146 1516.33885855 656.28519964 1516.34124239 C642.17118371 1516.34515639 628.05721035 1516.33526634 613.94320679 1516.31719017 C599.99189034 1516.29936862 586.04059167 1516.2878782 572.08926392 1516.28463173 C571.21806511 1516.28442551 570.34686631 1516.28421929 569.44926754 1516.28400682 C565.02392594 1516.28299166 560.59858432 1516.28208757 556.17324269 1516.2812262 C524.92244924 1516.27494426 493.67167889 1516.25478642 462.42089844 1516.22631836 C432.08300905 1516.19871403 401.74512601 1516.17748828 371.40722656 1516.16479492 C370.47018018 1516.16440034 369.53313379 1516.16400576 368.56769206 1516.16359923 C359.15649798 1516.15964328 349.74530386 1516.15581589 340.3341097 1516.15208265 C321.1666685 1516.14447637 301.99922771 1516.13601262 282.83178711 1516.12702942 C281.95072237 1516.12661755 281.06965762 1516.12620568 280.16189395 1516.12578133 C221.44125302 1516.09823309 162.72062494 1516.05070393 104 1516 C103.97614243 1500.68645942 103.95877164 1485.37292029 103.94818783 1470.05936527 C103.94313277 1462.94150718 103.93628115 1455.82366103 103.92456055 1448.70581055 C103.86755615 1413.37305085 104.09733204 1378.06953288 104.83000699 1342.74292372 C105.08606326 1330.19999158 105.19063638 1317.65670463 105.26036072 1305.11150551 C105.28280368 1301.08449971 105.3095117 1297.05753682 105.33703613 1293.03056335 C105.39018263 1285.16934549 105.43904798 1277.30810481 105.48697662 1269.44685364 C105.49995699 1267.31954926 105.51298793 1265.19224521 105.52606201 1263.06494141 C105.53170229 1262.1469149 105.53170229 1262.1469149 105.53745651 1261.21034241 C105.59047624 1252.66936643 105.64596565 1244.12840955 105.70372817 1235.58746442 C105.71341068 1234.15383892 105.72303546 1232.72021303 105.73258927 1231.28658667 C105.83850523 1215.44283439 105.96723967 1199.60065408 106.24154663 1183.75875854 C107.05674146 1136.36374568 107.14955465 1088.97699029 107.13529972 1041.5757772 C107.13298229 1033.65218363 107.13274418 1025.72859221 107.13381577 1017.8049984 C107.13404561 1016.08590521 107.13404561 1016.08590521 107.13428011 1014.33208286 C107.13459995 1012.00125085 107.13492417 1009.67041883 107.1352527 1007.33958682 C107.13807078 985.73973121 107.13487677 964.13987992 107.12945233 942.54002502 C107.12496635 924.10618968 107.12578208 905.67236063 107.13037109 887.23852539 C107.13574593 865.63902089 107.13781839 844.0395201 107.13475883 822.44001502 C107.13444038 820.13049328 107.13412601 817.82097155 107.13381577 815.51144981 C107.13366149 814.37609756 107.13350721 813.24074531 107.13334826 812.07098845 C107.13249339 804.16174846 107.13392304 796.25251087 107.13629532 788.34327126 C107.1391252 778.70061519 107.13828789 769.05796725 107.13301457 759.41531209 C107.13042327 754.51946586 107.12929303 749.62363308 107.13266373 744.72778702 C107.14686703 722.27853047 106.85751257 699.87030253 106.10710073 677.43326735 C105.88272792 670.24067531 105.79369933 663.04697643 105.71875 655.8515625 C105.70049426 654.35679716 105.68188639 652.8620361 105.66296387 651.36727905 C105.59594538 646.02077682 105.53459125 640.67421445 105.47393799 635.32763672 C105.41333211 630.00223069 105.34973096 624.6768734 105.28125 619.3515625 C105.27171862 618.60601231 105.26218723 617.86046211 105.25236702 617.09231949 C105.12313803 607.31562247 104.87508194 597.55200558 104.49609375 587.78125 C104.0599401 576.43441006 103.86157046 565.09587128 103.75390625 553.7421875 C103.7459094 552.90295809 103.73791256 552.06372868 103.72967339 551.19906807 C103.69729628 547.75078388 103.6658151 544.30249277 103.63527966 540.85419178 C103.34195844 503.1337751 103.34195844 503.1337751 102.0625 465.4375 C102.02488556 464.62432312 101.98727112 463.81114624 101.94851685 462.97332764 C101.5347112 454.29948472 100.77795932 445.73451324 99.69569397 437.11915588 C98.89186721 430.54273489 98.64150876 423.99741676 98.5 417.375 C97.91808269 398.49108894 96.18336846 380.1358524 93.125 361.5 C92.94053818 360.36183838 92.94053818 360.36183838 92.75234985 359.20068359 C89.47362135 339.15830443 85.25846512 320.38625332 71 305 C70.34644531 304.29230469 69.69289063 303.58460938 69.01953125 302.85546875 C51.2324088 285.40206342 23.12704594 284.21721294 0 283 C0 189.61 0 96.22 0 0 Z M343.9375 263 C325.78633628 284.09073897 322.6784088 305.63328201 322.75708008 332.67700195 C322.75600528 334.83505307 322.75406366 336.99310391 322.75132751 339.15115356 C322.74651145 344.97048296 322.75409138 350.78973479 322.76428056 356.6090548 C322.77310211 362.70642516 322.7713029 368.80379339 322.7709198 374.90116882 C322.77185379 385.12349742 322.78050684 395.34579617 322.79418945 405.56811523 C322.80996684 417.39947452 322.81518554 429.23080128 322.8144539 441.06217033 C322.8138448 452.44891901 322.8189359 463.83565708 322.82724571 475.22240257 C322.83078283 480.06969472 322.83260955 484.91698312 322.83313942 489.7642765 C322.83413993 495.45655773 322.84021244 501.14881139 322.85030556 506.84108353 C322.85323831 508.93538558 322.85445437 511.0296908 322.85387802 513.12399483 C322.85339106 515.96931511 322.85900564 518.81455693 322.86628723 521.65986633 C322.86473863 522.49952149 322.86319003 523.33917665 322.8615945 524.20427591 C322.52334362 527.90447355 322.52334362 527.90447355 324 531 C341.68303358 534.06013389 360.20238146 533.16290902 378.0703125 533.16796875 C379.41842543 533.16939932 380.76653819 533.1709968 382.11465073 533.17275429 C389.21543545 533.18197422 396.31620168 533.18609609 403.41699219 533.18530273 C409.15432592 533.18477713 414.89159021 533.19166251 420.62890625 533.20581055 C450.49836812 533.27775426 480.32954399 533.1554132 510.18359375 532.078125 C511.90592161 532.01610177 511.90592161 532.01610177 513.66304398 531.95282555 C560.92743338 531.16868754 560.92743338 531.16868754 607.125 522.3125 C607.94991943 522.05903809 608.77483887 521.80557617 609.62475586 521.54443359 C632.47997168 514.20699599 648.94416916 501.42221121 660 480 C664.33704012 471.48410968 665.75302167 462.37765205 667 453 C667.10586426 452.21608887 667.21172852 451.43217773 667.32080078 450.62451172 C669.23687837 435.44468312 669.18350124 420.21143324 669.1875 404.9375 C669.18849701 403.90815338 669.18949402 402.87880676 669.19052124 401.81826782 C669.19019553 398.84622101 669.1811194 395.8743592 669.16796875 392.90234375 C669.16615601 391.56141159 669.16615601 391.56141159 669.16430664 390.19338989 C669.12834796 385.36518739 668.76132641 380.7800157 668 376 C667.91163352 374.60834196 667.84853501 373.21456121 667.82421875 371.8203125 C667.03455955 343.504956 662.83870925 310.87571957 643 289 C642.1646875 288.04480469 642.1646875 288.04480469 641.3125 287.0703125 C612.08470121 255.70082155 566.96275232 246.45575791 526 244 C521.44132067 243.86385182 516.88596089 243.84312731 512.32543945 243.83886719 C511.02596878 243.83390228 509.72649811 243.82893738 508.38764954 243.82382202 C504.86253022 243.81085956 501.33742978 243.80428558 497.81229043 243.79981136 C495.59843659 243.79685518 493.38458764 243.79274604 491.17073631 243.78830719 C484.21035457 243.77467691 477.24998432 243.76498765 470.28959018 243.7611053 C462.31678451 243.75663067 454.34415078 243.73909149 446.37139732 243.7101047 C440.16538163 243.68834163 433.95941381 243.67839335 427.75336045 243.67706418 C424.0663185 243.67602686 420.37943912 243.67035213 416.69243813 243.65224457 C377.06594017 243.32606441 377.06594017 243.32606441 343.9375 263 Z M412 800 C411.67327368 801.60460199 411.34813919 803.20952817 411.02368164 804.81459045 C410.84245255 805.70829881 410.66122345 806.60200716 410.47450256 807.52279758 C408.93348111 815.56790072 408.8275818 823.9241458 408.27279663 832.08280945 C408.10145133 834.54322173 407.9237196 837.00320623 407.73672485 839.46247864 C405.53486864 868.49985991 405.65813724 897.56708432 405.68632042 926.67018586 C405.69030742 932.21150825 405.67557415 937.75266829 405.6567561 943.29395378 C405.63682183 949.39740067 405.63398672 955.50074491 405.63749123 961.60422134 C405.63698449 964.15466975 405.63187153 966.70512229 405.62167931 969.25555038 C405.48648954 1007.72698803 412.14863124 1043.87080596 439.375 1072.6875 C471.52658768 1103.53857402 524.7031956 1106.1304887 566.58203125 1106.203125 C567.69319494 1106.20595238 568.80435863 1106.20877975 569.94919395 1106.21169281 C575.82493697 1106.22658654 581.70065603 1106.23587903 587.57641602 1106.24023438 C593.59073282 1106.24571809 599.6048232 1106.26977283 605.6190691 1106.29820633 C610.29583858 1106.31697036 614.97255483 1106.32204549 619.64935875 1106.32357025 C621.86457246 1106.32656409 624.07978598 1106.33447936 626.29496193 1106.34775543 C654.16528059 1106.50293644 685.34445684 1102.26539322 706.8125 1082.5 C711.58084209 1077.70498187 715.53279525 1072.7989952 719 1067 C719.57596924 1066.04262939 719.57596924 1066.04262939 720.16357422 1065.06591797 C736.69386239 1037.31206621 740.81658423 1009.14690539 740.59375 977.125 C740.59203184 974.4513991 740.59201019 971.77784405 740.59387207 969.10424805 C740.59381916 963.55453819 740.57445252 958.00517631 740.54199219 952.45556641 C740.50498192 946.09835725 740.49634395 939.74159934 740.5032897 933.38429642 C740.50965397 927.17937573 740.49874144 920.97460467 740.47932434 914.76971436 C740.47237048 912.16738618 740.46916038 909.56504484 740.47001648 906.96270752 C740.45596802 878.8982305 738.85061967 848.55400889 718.2265625 827.13671875 C691.62055117 801.60428331 648.74572809 799.82419878 614.07519531 799.88647461 C611.86655682 799.88675705 609.65791823 799.88659763 607.44927979 799.8860321 C601.48323021 799.88574635 595.51720092 799.89160712 589.55115604 799.89860606 C583.30516222 799.90487665 577.05916788 799.90544632 570.81317139 799.90663147 C560.33931129 799.90938187 549.86545811 799.91561908 539.39160156 799.92456055 C528.60904985 799.9337559 517.82650016 799.94082632 507.04394531 799.94506836 C506.37801098 799.94533108 505.71207666 799.94559381 505.0259625 799.94586449 C501.68477817 799.94716964 498.34359382 799.94843106 495.00240946 799.94967639 C467.33493449 799.9601161 439.66746777 799.97769438 412 800 Z " fill="#373735" transform="translate(2636,216)"/>
<path d="M0 0 C59.27158499 -0.05140122 118.54317229 -0.099157 177.81477356 -0.12702942 C179.13251163 -0.12765068 179.13251163 -0.12765068 180.47687067 -0.12828448 C199.57298239 -0.13726508 218.66909434 -0.14557536 237.76520665 -0.15319599 C247.13115019 -0.15693771 256.49709366 -0.16082741 265.86303711 -0.16479492 C266.79501662 -0.1651872 267.72699614 -0.16557948 268.68721745 -0.16598364 C298.84665561 -0.17874724 329.0060768 -0.20126583 359.1655047 -0.22889166 C390.18142339 -0.25725015 421.1973327 -0.27567037 452.21326413 -0.28174497 C456.60305067 -0.28260932 460.99283717 -0.28358623 465.38262367 -0.28463173 C466.24652061 -0.284834 467.11041754 -0.28503627 468.00049317 -0.28524467 C481.85673183 -0.28877747 495.71294135 -0.30265811 509.56916817 -0.3204961 C523.52970115 -0.33824436 537.49020551 -0.34488244 551.45074936 -0.34050413 C559.72528568 -0.3382379 567.99971649 -0.34416517 576.27423358 -0.36239263 C582.48535041 -0.37512857 588.69636817 -0.37179778 594.90748922 -0.36269668 C597.39655146 -0.36144356 599.88562299 -0.36512135 602.37466731 -0.37464955 C624.90584642 -0.45578113 647.40061645 1.13123506 669.5625 5.375 C670.71266602 5.58995117 671.86283203 5.80490234 673.04785156 6.02636719 C725.12930118 15.97222528 774.66249522 40.17581778 813 77 C814.34578125 78.28390625 814.34578125 78.28390625 815.71875 79.59375 C820.74393428 84.49485565 825.28954146 89.61813095 829.6640625 95.10546875 C831.70326029 97.63230079 833.80295461 100.09006639 835.9362793 102.53735352 C869.61095248 141.3853932 883.73228883 186.10271863 887.21875 236.7734375 C887.32258409 238.24703765 887.42653551 239.72062954 887.53059387 241.19421387 C887.86187312 245.92059912 888.18173105 250.64772349 888.5 255.375 C888.58234201 256.59013149 888.58234201 256.59013149 888.6663475 257.8298111 C890.83538986 289.86939005 892.3635067 321.88888008 893 354 C893.01826843 354.91448914 893.03653687 355.82897827 893.05535889 356.7711792 C894.47723664 431.81589331 888.8469707 512.08171808 844 575 C843.57170898 575.60618164 843.14341797 576.21236328 842.70214844 576.83691406 C831.80933147 592.04914862 817.87940199 605.70599608 803 617 C801.9790625 617.8146875 800.958125 618.629375 799.90625 619.46875 C751.36095063 658.06164371 682.77049927 670.70922256 622.4152832 676.53466797 C621.75685382 676.59837641 621.09842443 676.66208484 620.42004263 676.72772384 C605.62907496 678.14451036 590.82330693 678.91343001 575.98046875 679.5703125 C573.24612144 679.69647375 570.51189432 679.82515437 567.77766418 679.9538269 C561.40537486 680.25243437 555.03277888 680.54377085 548.66000396 680.83181083 C537.20930676 681.34960827 525.75919984 681.88024042 514.30922395 682.41372478 C509.67167427 682.62945825 505.03390215 682.83988687 500.39604187 683.04885864 C497.96999711 683.1602499 495.54395625 683.27172602 493.11791992 683.38330078 C491.49163918 683.45499481 491.49163918 683.45499481 489.83250427 683.52813721 C483.52795635 683.82167433 477.27250978 684.29824993 471 685 C471.71275935 685.05254094 472.4255187 685.10508188 473.15987682 685.15921497 C654.74972756 698.57226769 654.74972756 698.57226769 746.4375 766.75 C747.62718332 768.16483366 748.81442637 769.58172081 750 771 C750.80953125 771.92167969 751.6190625 772.84335937 752.453125 773.79296875 C774.50267565 799.01422236 791.30413398 828.91484779 801 861 C801.28149902 861.92167969 801.56299805 862.84335938 801.85302734 863.79296875 C817.08661708 914.58855567 821.5590259 968.38592934 823.7566967 1021.13591766 C824.45606421 1037.65740516 825.41786374 1054.14835659 826.62109375 1070.640625 C826.69354372 1071.63375828 826.76599369 1072.62689156 826.84063911 1073.65011978 C827.21412288 1078.7512709 827.59153867 1083.85212315 827.97076416 1088.95285034 C830.2222909 1119.26767183 832.35332399 1149.56454836 833.625 1179.9375 C834.25157269 1194.6314244 834.95198989 1209.30848839 836.0390625 1223.9765625 C836.11796722 1225.04748138 836.19687195 1226.11840027 836.27816772 1227.22177124 C837.95371921 1248.94008004 840.10982784 1270.60271514 842.65859795 1292.23461533 C845.98647727 1320.63050221 848.85487688 1349.06799036 851.62109375 1377.5234375 C851.71941734 1378.53473716 851.81774093 1379.54603683 851.91904402 1380.58798194 C853.12621848 1393.01181886 854.32520711 1405.43643975 855.52106702 1417.86137027 C856.55464609 1428.59804538 857.59411221 1439.33414849 858.63390243 1450.07022357 C860.76215575 1472.04621677 862.88355376 1494.02286674 865 1516 C862.15284784 1516.80777308 859.60972523 1517.13177858 856.65374565 1517.15428257 C855.78603314 1517.16324041 854.91832063 1517.17219825 854.02431381 1517.18142754 C853.07550625 1517.18629659 852.1266987 1517.19116565 851.1491394 1517.19618225 C850.1375338 1517.20520378 849.12592819 1517.21422531 848.08366787 1517.22352022 C844.68324057 1517.25265993 841.28280305 1517.27486449 837.88232422 1517.29711914 C835.44791333 1517.31655713 833.01350579 1517.33641906 830.57910156 1517.35667419 C824.64332532 1517.40496246 818.70752584 1517.44877958 812.77170156 1517.49061734 C805.84658005 1517.53965378 798.9215038 1517.59405429 791.99642505 1517.64874845 C779.62280716 1517.74632027 767.24915999 1517.83946412 754.87548828 1517.92993164 C742.90020702 1518.01749406 730.92494736 1518.10744235 718.94970703 1518.20043945 C717.84642592 1518.20900635 717.84642592 1518.20900635 716.72085629 1518.21774632 C713.76331064 1518.24071888 710.80576507 1518.26370204 707.84821963 1518.28670079 C694.33371964 1518.39174762 680.81920519 1518.49491512 667.3046875 1518.59765625 C666.62259663 1518.60284693 665.94050576 1518.60803761 665.23774546 1518.61338559 C656.67954668 1518.67849337 648.12134188 1518.74271479 639.56312561 1518.80549049 C637.18732157 1518.82300204 634.81151912 1518.84073187 632.43571854 1518.85870743 C619.29019666 1518.95793713 606.14591422 1519.02532299 593 1519 C592.98852464 1518.03049156 592.97704927 1517.06098312 592.96522617 1516.06209564 C592.69391385 1493.16600852 592.40343166 1470.27021458 592.09720993 1447.37456799 C592.0290587 1442.25756037 591.96441933 1437.14052829 591.90283203 1432.0234375 C591.54555701 1402.71812014 590.43553663 1373.50978419 588.89086914 1344.24302673 C587.75196955 1322.64881157 587.13809918 1301.07704668 586.7578125 1279.45703125 C586.73633148 1278.23847443 586.71485046 1277.0199176 586.69271851 1275.76443481 C586.58659423 1269.6936201 586.48474234 1263.62279364 586.39208984 1257.55175781 C585.95400183 1229.61685385 584.5194757 1201.86161763 582.47451782 1174.00527954 C580.57649347 1148.12073491 578.69700979 1122.25505861 577.8125 1096.3125 C575.43013459 1027.92957681 568.86788313 934.96964122 515.66015625 885.23828125 C505.37301666 876.5825823 494.71452595 868.62363383 483 862 C482.38253906 861.64486328 481.76507812 861.28972656 481.12890625 860.92382812 C443.12580365 839.21314476 399.09614619 834.63485472 356.04077148 833.34106445 C349.32726932 833.13456866 342.68244534 832.67238662 336 832 C336.01481918 832.57952423 336.02963837 833.15904846 336.04490662 833.75613403 C336.1585242 842.17515247 335.55412986 850.50455437 334.91938972 858.89242172 C334.7180089 861.55360067 334.52158603 864.21510832 334.32627869 866.8767395 C333.97983426 871.58704437 333.62908795 876.29701717 333.2769165 881.00689697 C332.71630002 888.50588053 332.15966648 896.00515011 331.60796928 903.50479507 C331.41707455 906.08613596 331.22274463 908.66720075 331.02809143 911.2482605 C329.74549088 928.46402458 328.90069074 945.66967135 328.71875 962.93359375 C328.70057332 964.35303785 328.681966 965.7724765 328.66296387 967.19190979 C328.6046391 971.60706128 328.55185104 976.02226835 328.5 980.4375 C328.43144948 986.26959198 328.36024299 992.10163285 328.28125 997.93359375 C328.27167707 998.64305649 328.26210415 999.35251923 328.25224113 1000.08348083 C328.12338702 1009.2841605 327.84771438 1018.46276534 327.37098694 1027.65193176 C326.73695182 1040.42703014 326.64617818 1053.22206322 326.46777344 1066.0100708 C326.42765107 1068.81305531 326.38348004 1071.61596997 326.33935261 1074.41889381 C325.86682717 1104.59337859 326.0064034 1134.75105073 326.37231445 1164.92578125 C326.41622897 1168.55499119 326.45785444 1172.18421548 326.49731445 1175.81347656 C326.7729492 1201.3376745 326.7729492 1201.3376745 327.51171875 1226.8515625 C327.96027485 1238.7564507 328.12699979 1250.65030693 328.2109375 1262.5625 C328.21753136 1263.48385679 328.22412521 1264.40521358 328.23091888 1265.35449028 C328.25816349 1269.20484956 328.28471818 1273.05521306 328.31064034 1276.90558147 C328.56979662 1314.94882481 329.21756833 1352.96971161 330.34009552 1390.99749756 C330.43639989 1394.27505955 330.5304101 1397.55268069 330.6239624 1400.83032227 C331.19153011 1420.56461741 331.78439805 1440.26026805 333.35028076 1459.94398499 C334.06302827 1469.08329722 334.27754036 1478.17080108 334.20581055 1487.33544922 C334.18693888 1489.82399267 334.18530662 1492.31217196 334.18554688 1494.80078125 C334.18064852 1496.42448235 334.1748277 1498.048181 334.16796875 1499.671875 C334.16685593 1500.39582458 334.1657431 1501.11977417 334.16459656 1501.86566162 C334.15821671 1502.55549133 334.15183685 1503.24532104 334.14526367 1503.95605469 C334.14145187 1504.54666687 334.13764008 1505.13727905 334.13371277 1505.74578857 C333.93008603 1509.17865233 333.42654276 1512.58765789 333 1516 C225.09 1516 117.18 1516 6 1516 C6 1505.05917089 6.02959117 1494.22556078 6.4375 1483.3125 C7.6510469 1447.3546251 7.90061337 1411.35770315 8.25 1375.3828125 C8.265718 1373.77428343 8.265718 1373.77428343 8.28175354 1372.13325882 C8.38658939 1361.38568809 8.48876121 1350.63810643 8.58092499 1339.89041901 C8.90673132 1302.19435452 9.56669721 1264.52061594 11.125 1226.85351562 C11.77428934 1210.97636218 12.17245501 1195.10075111 12.48413086 1179.21386719 C12.50561247 1178.12938018 12.52709408 1177.04489317 12.54922664 1175.92754292 C13.04033343 1151.02325245 13.41711627 1126.11773863 13.75390625 1101.2109375 C13.76989939 1100.03306766 13.78589253 1098.85519781 13.80237031 1097.64163494 C14.07007306 1077.8862679 14.3221686 1058.13071692 14.5625 1038.375 C14.57094252 1037.68106781 14.57938504 1036.98713563 14.58808339 1036.27217519 C15.52734385 958.94007997 16.17319713 881.6087744 16.375 735.125 C16.37497693 734.30851695 16.37495386 733.49203389 16.37493008 732.65080893 C16.37130163 654.96225213 16.12586443 577.27666354 14.625 442.25 C14.60913062 440.97543347 14.59326124 439.70086695 14.57691097 438.38767719 C13.96325984 389.14372972 13.26682318 339.90299379 11.9609375 290.671875 C11.94035546 289.89334325 11.91977342 289.1148115 11.89856768 288.31268787 C11.49771386 273.21962651 11.04506407 258.13170684 10.35285568 243.04869556 C9.94165191 234.01373057 9.67553107 224.97660361 9.42994881 215.93581772 C9.29040982 210.81394207 9.14371418 205.692268 8.99829102 200.57055664 C8.9681425 199.50369125 8.93799398 198.43682587 8.90693188 197.33763123 C7.34094074 142.01334311 5.13056375 86.79640762 1.26977539 31.58032227 C1.18532166 30.35536545 1.10086792 29.13040863 1.01385498 27.86833191 C0.85727892 25.60457961 0.69738542 23.34105287 0.53326416 21.07783508 C0.1775899 15.91824708 -0.03833786 10.79932737 -0.01997375 5.62637329 C-0.01709004 4.56656565 -0.01420633 3.506758 -0.01123524 2.41483498 C-0.00752761 1.61793943 -0.00381998 0.82104389 0 0 Z M214.25 210.6875 C197.22644638 231.72877796 191.98207002 260.72119209 190 287 C189.91777191 288.06834076 189.83554382 289.13668152 189.75082397 290.23739624 C189.13043801 298.83956244 188.85248304 307.37951141 188.8671875 316.0078125 C188.86623077 317.29396454 188.86527405 318.58011658 188.86428833 319.90524292 C188.86282885 322.61278506 188.86490372 325.32029384 188.86962891 328.02783203 C188.87413555 330.73423469 188.87424312 333.4405702 188.86962891 336.14697266 C188.84550616 351.33873552 189.00763156 366.49806036 189.58935547 381.68048096 C189.96150587 391.44992051 190.21483476 401.21832875 190.4296875 410.9921875 C190.46534273 412.59215426 190.50105906 414.19211967 190.53683472 415.79208374 C190.59198969 418.26058869 190.64712781 420.72909396 190.70208931 423.19760323 C191.39095096 454.03914412 192.2514432 484.87126048 193.40518951 515.69907379 C193.49884411 518.21890008 193.59026195 520.73879846 193.68109131 523.25872803 C192.61518958 551.510222 192.61518958 551.510222 198 578 C205.45238505 578.02555223 212.90475862 578.04295103 220.35717773 578.05493164 C222.88745547 578.05993123 225.41773035 578.06673309 227.94799805 578.07543945 C231.60466213 578.08769804 235.26128772 578.09327221 238.91796875 578.09765625 C240.03205612 578.10281754 241.14614349 578.10797882 242.29399109 578.11329651 C247.62611461 578.11366937 252.88195892 577.96855196 258.19506836 577.50708008 C265.62789586 576.88147881 273.03308857 576.83303249 280.48716354 576.80076981 C283.03176675 576.7887273 285.57621855 576.76921527 288.12075806 576.74765015 C295.34689049 576.68689043 302.57300272 576.63237474 309.79931641 576.59863281 C339.02901058 576.55614991 339.02901058 576.55614991 368 573 C369.17385254 572.78134277 370.34770508 572.56268555 371.55712891 572.33740234 C374.27851713 571.76567464 376.94461256 571.11322228 379.625 570.375 C381.02709717 569.99649902 381.02709717 569.99649902 382.45751953 569.61035156 C404.93195255 563.24959162 425.27941355 552.1336783 443 537 C443.53496094 536.5447998 444.06992187 536.08959961 444.62109375 535.62060547 C484.64533817 501.18654433 494.55665555 444.32723344 498.46774292 394.19932556 C500.60463907 365.72970267 501.97897768 336.34542698 498 308 C497.8146167 306.66122803 497.8146167 306.66122803 497.62548828 305.29541016 C492.81362255 272.13728085 479.99745565 246.38213627 456 223 C455.47664063 222.43152344 454.95328125 221.86304688 454.4140625 221.27734375 C425.59185662 190.69175397 379.46113472 182.2841527 339.46038818 180.87533569 C332.51290324 180.70810517 325.56745011 180.67117571 318.61816406 180.68432617 C315.10451049 180.68751862 311.59167771 180.66376172 308.078125 180.63867188 C275.13625042 180.54658553 238.20650986 185.55455438 214.25 210.6875 Z " fill="#373735" transform="translate(151,216)"/>
<path d="M0 0 C108.24 0 216.48 0 328 0 C329.14795073 25.25491598 329.14795073 25.25491598 329.24951172 34.80102539 C329.27186087 36.47047919 329.27186087 36.47047919 329.29466152 38.17365932 C329.32626371 40.56497675 329.35628863 42.95631548 329.38482094 45.34767151 C329.4315484 49.25319152 329.48274288 53.15864087 329.53520203 57.06408691 C329.60148166 62.02158184 329.66675844 66.97908769 329.73054522 71.93661535 C329.93803032 88.06210294 330.16249206 104.18734823 330.39453125 120.3125 C330.40601 121.11148689 330.41748874 121.91047377 330.42931533 122.73367238 C330.98340542 161.20767126 331.72597395 199.67752439 332.51313496 238.14737463 C332.56224523 240.55003558 332.6111825 242.95269999 332.66005707 245.35536575 C333.09165816 266.57057674 333.53652084 287.78546013 334 309 C334.02415733 310.11280209 334.04831467 311.22560417 334.07320404 312.37212753 C334.20100247 318.25061176 334.33178483 324.12901037 334.46861076 330.00729179 C334.50646946 331.64428196 334.54352449 333.281291 334.57959175 334.91832161 C334.82140391 345.81828659 335.29941007 356.69501545 335.88657188 367.58169556 C337.22721006 392.47077892 337.40664009 417.38190766 337.63499451 442.3008976 C337.67272156 446.41025331 337.71252271 450.5195858 337.75390625 454.62890625 C337.76183197 455.42249794 337.76975769 456.21608963 337.77792358 457.03372955 C337.87189141 466.0057214 338.0651813 474.94706717 338.63945007 483.90289307 C339.07650454 491.18757593 339.14237964 498.47352542 339.2109375 505.76953125 C339.21752003 506.46082563 339.22410255 507.15212002 339.23088455 507.86436272 C339.25845305 510.80909945 339.28502346 513.75384357 339.31064224 516.69859791 C339.63149248 553.38149972 340.41802753 590.05118664 341.34009552 626.72344589 C341.43641631 630.58159241 341.53050245 634.43978736 341.6239624 638.29800415 C342.46004296 673.17448632 342.46004296 673.17448632 344.03515625 708.0234375 C344.07608335 708.75599384 344.11701046 709.48855019 344.15917778 710.24330521 C344.63321895 718.6157794 344.63321895 718.6157794 345.52114868 726.9511261 C346.01791752 730.79713217 346.13105043 734.57520282 346.1418457 738.45629883 C346.14705734 739.50490334 346.14705734 739.50490334 346.15237427 740.57469177 C346.15967557 742.08160945 346.16505059 743.58853749 346.16866493 745.09546852 C346.17594256 747.51056232 346.19169902 749.92546567 346.21000671 752.34049988 C346.26188566 759.20426455 346.31015721 766.06792923 346.32592773 772.93188477 C346.42156973 809.11560967 346.55651617 854.6668457 373.3046875 882.59375 C400.85353239 907.18808109 437.01784411 910.52478733 472.34615707 910.33711338 C475.80864248 910.32177354 479.27112889 910.32324453 482.73364258 910.32244873 C488.53260727 910.31878954 494.33145121 910.30398767 500.13037109 910.28125 C507.53496799 910.25227232 514.93946874 910.24200925 522.34411621 910.2375679 C528.77322789 910.23356705 535.20231939 910.22108138 541.63141632 910.20722103 C543.67010959 910.20315964 545.70880219 910.20021552 547.74749756 910.19742584 C551.56477478 910.19049683 555.38196871 910.17683648 559.19921875 910.16113281 C560.30703201 910.16001495 561.41484528 910.15889709 562.55622864 910.15774536 C569.09612191 910.12238599 575.55743661 909.79686642 582.07336426 909.23158646 C586.65011454 908.86942544 591.22351015 908.78834899 595.8125 908.71875 C596.78751465 908.70034058 597.7625293 908.68193115 598.76708984 908.66296387 C601.84467445 908.60508404 604.92231085 908.55199949 608 908.5 C623.01760814 908.2426927 638.00097528 907.80463518 653 907 C653.20749206 975.51472526 652.42692079 1043.97270573 650.53149796 1112.46138 C650.08802921 1128.49709206 649.67640301 1144.53353501 649.2734375 1160.5703125 C649.24203737 1161.8195689 649.21063725 1163.0688253 649.1782856 1164.35593796 C648.95154468 1173.38310917 648.72569621 1182.41030262 648.5 1191.4375 C648.24132298 1201.78126099 647.98231072 1212.12501349 647.72265625 1222.46875 C647.69123472 1223.72123158 647.65981319 1224.97371315 647.6274395 1226.26414871 C647.26437233 1240.72154374 646.89346523 1255.17865788 646.49897575 1269.63523102 C645.48043744 1306.96105464 644.67055938 1344.287667 644.00142288 1381.62150955 C643.95969307 1383.94944148 643.91781687 1386.27737079 643.87577438 1388.60529709 C643.10891363 1431.06870336 642.5662277 1473.53292268 642 1516 C423.21 1516 204.42 1516 -21 1516 C-21 1501.38375754 -21 1501.38375754 -20.60449219 1494.64990234 C-20.5620617 1493.90735608 -20.51963121 1493.16480982 -20.47591496 1492.39976215 C-20.38411263 1490.79949928 -20.29068784 1489.19932876 -20.19574928 1487.59924889 C-20.04134739 1484.99261986 -19.8918433 1482.38574769 -19.74357605 1479.77876282 C-19.52743332 1475.97845483 -19.31009721 1472.17821815 -19.0920105 1468.37802124 C-17.09766677 1433.49319057 -15.33974987 1398.60120841 -13.9375 1363.6875 C-13.89781475 1362.6995557 -13.8581295 1361.7116114 -13.81724167 1360.6937294 C-11.84682484 1311.41243115 -10.33783774 1262.11370392 -8.83203125 1212.81640625 C-8.79665127 1211.66034756 -8.76127129 1210.50428886 -8.72481918 1209.31319809 C-8.51539387 1202.45218044 -8.31051622 1195.59104252 -8.10972214 1188.72976685 C-8.03391784 1186.15296364 -7.95731905 1183.57619568 -7.87959671 1180.99945068 C-7.17760276 1157.66950173 -6.69643909 1134.33921553 -6.30569458 1111.00210953 C-6.19930607 1104.64889606 -6.08944966 1098.29574474 -5.97924805 1091.94259644 C-5.64624549 1072.70949492 -5.31879835 1053.47630048 -4.99499512 1034.24304199 C-4.74074438 1019.15026493 -4.48345203 1004.05754158 -4.22242057 988.96488023 C-4.19909877 987.61610646 -4.17579685 986.26733234 -4.15251458 984.91855788 C-3.4920736 946.65923036 -2.71722913 908.40447602 -1.80035973 870.15027428 C0.34891207 780.32971486 2.04272106 690.52301638 2.4375 478.4375 C2.43669831 476.9443667 2.43669831 476.9443667 2.43588042 475.42106909 C2.38535317 384.712119 2.0891317 294.00415659 1.55023733 203.29680473 C1.53138363 200.1226686 1.51265465 196.94853174 1.49393146 193.77439484 C1.10852706 129.18199039 0.53353786 64.59142758 0 0 Z " fill="#373735" transform="translate(3863,216)"/>
</svg>
