<?xml version="1.0" encoding="UTF-8"?>
<svg version="1.1" xmlns="http://www.w3.org/2000/svg" width="970" height="1867">
<path d="M0 0 C8.20198314 7.3388746 15.38435091 15.22600835 22.18359375 23.87109375 C23.37082031 25.33289063 23.37082031 25.33289063 24.58203125 26.82421875 C31.63253495 35.67627072 37.50619903 45.09213398 43.18359375 54.87109375 C43.55226563 55.49709473 43.9209375 56.1230957 44.30078125 56.76806641 C58.56563909 81.18859137 66.28527346 109.03085378 70.18359375 136.87109375 C70.28961914 137.62044189 70.39564453 138.36979004 70.50488281 139.1418457 C71.43208884 146.83061162 71.33458511 154.56043134 71.31396484 162.29223633 C71.30862833 164.66819713 71.31392486 167.04396698 71.3203125 169.41992188 C71.31994811 170.97265675 71.31865545 172.52539171 71.31640625 174.078125 C71.31707092 174.83744827 71.3177356 175.59677155 71.31842041 176.37910461 C71.29260493 180.93062725 70.90419476 185.29001662 70.30078125 189.80859375 C69.6923694 196.92924512 72.34227618 201.24630429 76.18359375 207.05859375 C77.48849836 209.15791062 78.79183069 211.25820545 80.09375 213.359375 C81.11106201 214.9673999 81.11106201 214.9673999 82.14892578 216.60791016 C85.45122012 221.9041024 88.52755084 227.32626216 91.62109375 232.74609375 C92.87931564 234.93150378 94.1384347 237.11639752 95.3984375 239.30078125 C96.02347168 240.38584961 96.64850586 241.47091797 97.29248047 242.58886719 C99.79673505 246.93526515 102.30352727 251.28019648 104.81054688 255.625 C106.6864989 258.87612854 108.56199904 262.12751749 110.4375 265.37890625 C112.92290277 269.68711026 115.41001352 273.99432164 117.8984375 278.30078125 C126.3643527 292.95576407 134.77911685 307.63942037 143.16748047 322.33886719 C146.17108878 327.60185903 149.17825951 332.86281491 152.18515015 338.12393188 C153.183267 339.87052197 154.18114719 341.61724706 155.17895508 343.36401367 C158.19494205 348.64352383 161.21211498 353.92234013 164.23486328 359.19798279 C171.60567815 372.06258437 178.93398743 384.94873558 186.15649414 397.89746094 C190.43860877 405.56739866 194.78282688 413.20001382 199.19042969 420.79858398 C200.54252912 423.14502985 201.87063179 425.50254091 203.18359375 427.87109375 C203.63049561 428.67232666 204.07739746 429.47355957 204.5378418 430.29907227 C207.7614385 436.3622055 209.53611511 442.21532375 210.87109375 448.93359375 C211.07822998 449.9496167 211.28536621 450.96563965 211.4987793 452.01245117 C212.08464892 454.96135153 212.64106543 457.91394713 213.18359375 460.87109375 C213.31926758 461.58587891 213.45494141 462.30066406 213.59472656 463.03710938 C229.31575667 549.74634022 182.75669863 638.19374459 135.18359375 706.87109375 C131.33228679 712.32411249 127.31849237 717.63128584 123.18359375 722.87109375 C122.23491634 724.09185711 121.28701704 725.31322549 120.33984375 726.53515625 C107.5229521 743.01683336 94.05663385 758.90800298 79.78759766 774.14941406 C78.07995504 775.98233579 76.38720001 777.82831254 74.6953125 779.67578125 C66.21109086 788.89485673 57.3461925 797.59135782 48.13037109 806.07714844 C46.35604431 807.71218145 44.59051285 809.35602834 42.828125 811.00390625 C36.4951115 816.90175067 29.9481616 822.4744006 23.18359375 827.87109375 C22.29542969 828.61488281 21.40726563 829.35867188 20.4921875 830.125 C18.18359375 831.87109375 18.18359375 831.87109375 16.18359375 831.87109375 C16.13222165 832.98062692 16.08084955 834.09016008 16.02792072 835.23331547 C15.41106869 847.99903786 14.45107351 860.72126545 13.3894043 873.45678711 C13.20834585 875.65369455 13.02750514 877.85061995 12.84686279 880.04756165 C12.3600427 885.95693651 11.86935625 891.86598338 11.37727332 897.77492213 C11.06878419 901.47928958 10.76084002 905.18370199 10.45301247 908.88812447 C9.48637797 920.51640979 8.51698727 932.14446119 7.54411477 943.77222627 C7.43280829 945.10262649 7.32150506 946.43302698 7.21020508 947.76342773 C7.15499814 948.42331594 7.0997912 949.08320414 7.04291133 949.76308895 C6.14857738 960.45628689 5.26411576 971.15027726 4.38376667 981.8446347 C3.47485399 992.88402723 2.55692347 1003.92264163 1.63090354 1014.96061236 C1.11318295 1021.13427683 0.59917162 1027.30819395 0.09467125 1033.48295403 C-0.38023489 1039.29278489 -0.86635167 1045.10157532 -1.36064148 1050.90978813 C-1.53876516 1053.02480551 -1.71304713 1055.14015106 -1.88290977 1057.25584793 C-3.99618623 1083.50666024 -9.07520394 1107.64223512 -21.81640625 1130.87109375 C-22.32042969 1131.7940625 -22.82445312 1132.71703125 -23.34375 1133.66796875 C-41.19399401 1164.72047079 -72.24834084 1189.90714566 -106.81640625 1199.87109375 C-149.57707885 1210.87309737 -191.99789434 1206.92287854 -230.45703125 1184.5703125 C-237.05854871 1180.58249838 -242.98721592 1175.90226068 -248.81640625 1170.87109375 C-249.37166992 1170.39945801 -249.92693359 1169.92782227 -250.49902344 1169.44189453 C-259.0871465 1162.09095905 -266.25126513 1154.0658621 -272.81640625 1144.87109375 C-273.21311523 1144.31728027 -273.60982422 1143.7634668 -274.01855469 1143.19287109 C-282.93817549 1130.53119647 -289.67023458 1116.55028893 -294.19140625 1101.74609375 C-294.41787842 1101.00858887 -294.64435059 1100.27108398 -294.87768555 1099.51123047 C-299.38523908 1083.74072185 -300.660058 1067.44658721 -301.97705078 1051.17285156 C-302.17223092 1048.83360188 -302.36811274 1046.49441065 -302.56463623 1044.15527344 C-302.98332807 1039.15384389 -303.39711353 1034.15204239 -303.80694962 1029.14987946 C-304.39993456 1021.91244278 -305.00179895 1014.6757635 -305.60618566 1007.43927202 C-306.58759409 995.68623772 -307.56246449 983.9326713 -308.53271484 972.17871094 C-309.47322534 960.78529886 -310.41541347 949.39202875 -311.36083984 937.99902344 C-311.41922618 937.29541181 -311.47761252 936.59180017 -311.53776814 935.86686698 C-312.17534437 928.18436005 -312.81369503 920.50191783 -313.45307732 912.819561 C-313.50925498 912.14455881 -313.56543265 911.46955662 -313.62331267 910.77409981 C-313.84787591 908.07602397 -314.07245203 905.3779492 -314.29713224 902.67988309 C-315.00747118 894.14963018 -315.71424451 885.61909305 -316.41724801 877.08823252 C-316.81984433 872.20840922 -317.22472969 867.32877765 -317.63014984 862.44918823 C-317.81781945 860.18410359 -318.00448007 857.9189351 -318.19006729 855.65367889 C-318.44309042 852.5666842 -318.69964449 849.48000249 -318.95706177 846.39337158 C-319.06635142 845.0435434 -319.06635142 845.0435434 -319.17784894 843.66644597 C-319.33986827 836.37853785 -319.33986827 836.37853785 -322.42578125 830.23828125 C-323.48539062 829.49964844 -323.48539062 829.49964844 -324.56640625 828.74609375 C-328.51646955 825.85229738 -332.32932662 822.84635043 -336.06640625 819.68359375 C-337.0409375 818.86503906 -338.01546875 818.04648438 -339.01953125 817.203125 C-349.81664119 807.83906924 -359.99809567 797.85037587 -370.08447266 787.73339844 C-372.20621634 785.60624591 -374.33332116 783.48455814 -376.4609375 781.36328125 C-377.83756065 779.98599792 -379.21387391 778.60840476 -380.58984375 777.23046875 C-381.21289398 776.60944275 -381.83594421 775.98841675 -382.47787476 775.34857178 C-386.78665451 771.01708637 -390.83761521 766.5061915 -394.81640625 761.87109375 C-395.75488561 760.78878258 -396.69362904 759.70670024 -397.6328125 758.625 C-438.82309805 710.85586538 -474.37789587 658.7019503 -497.81640625 599.87109375 C-498.33025879 598.59226318 -498.33025879 598.59226318 -498.85449219 597.28759766 C-518.24560316 548.57164896 -530.28749767 483.23621682 -509.81640625 432.87109375 C-508.22825442 429.68007525 -506.44722477 426.62312127 -504.62890625 423.55859375 C-503.54908564 421.70335399 -502.46968069 419.84787226 -501.390625 417.9921875 C-500.8136084 417.00589355 -500.2365918 416.01959961 -499.64208984 415.00341797 C-496.71783898 409.98628256 -493.83756081 404.94404108 -490.95803833 399.90115356 C-489.9350467 398.10995856 -488.91081166 396.3194786 -487.88647461 394.52905273 C-483.44087244 386.75246475 -479.05176924 378.94587159 -474.69140625 371.12109375 C-469.59431445 361.97660827 -464.36641812 352.91750169 -459.06591797 343.88964844 C-454.89351115 336.76523177 -450.83141902 329.58523734 -446.81640625 322.37109375 C-441.71969494 313.2167307 -436.50779295 304.13912243 -431.20703125 295.1015625 C-426.68809912 287.38925166 -422.24074137 279.63784731 -417.81640625 271.87109375 C-412.2827249 262.15992964 -406.69529859 252.48210669 -401.05053711 242.83496094 C-396.01558693 234.2266117 -391.02828503 225.59135547 -386.05249023 216.94873047 C-385.47055908 215.9382666 -384.88862793 214.92780273 -384.2890625 213.88671875 C-383.72340576 212.89623535 -383.15774902 211.90575195 -382.57495117 210.88525391 C-381.35658452 208.79696365 -380.10135522 206.72991178 -378.81762695 204.68115234 C-378.175271 203.64297363 -377.53291504 202.60479492 -376.87109375 201.53515625 C-376.28440918 200.6117041 -375.69772461 199.68825195 -375.09326172 198.73681641 C-373.058428 194.1699181 -373.69672296 189.75092016 -374.3359375 184.90625 C-380.58639406 127.67587918 -361.57936857 69.48080799 -326.27587891 24.66943359 C-323.34663012 21.06005812 -320.22853928 17.64296041 -317.046875 14.25390625 C-315.06351701 12.13508248 -313.18400685 9.96631824 -311.31640625 7.74609375 C-277.94846067 -30.42188112 -223.47267996 -53.39003561 -173.81079102 -57.94799805 C-108.61271212 -61.88699327 -49.25381491 -43.35358135 0 0 Z M-268.81640625 3.87109375 C-269.71117676 4.50337891 -269.71117676 4.50337891 -270.62402344 5.1484375 C-292.36010549 20.63709699 -310.75079369 41.66072413 -323.81640625 64.87109375 C-324.39769287 65.89444824 -324.39769287 65.89444824 -324.99072266 66.93847656 C-337.90824705 89.87048436 -355.95666368 128.15377627 -350.33813477 155.17089844 C-350.16596436 155.73196289 -349.99379395 156.29302734 -349.81640625 156.87109375 C-349.30779053 156.01990967 -348.7991748 155.16872559 -348.27514648 154.29174805 C-346.35516398 151.07954614 -344.43311583 147.86858415 -342.51049805 144.65795898 C-341.68475451 143.27840417 -340.85954292 141.89853079 -340.03491211 140.51831055 C-338.83723584 138.51393197 -337.63790553 136.51055765 -336.4375 134.5078125 C-335.85045792 133.52782791 -335.85045792 133.52782791 -335.2515564 132.52804565 C-332.27948814 127.58850062 -329.18941654 122.73422781 -326.01586914 117.92114258 C-324.64807232 115.97924858 -324.64807232 115.97924858 -324.81640625 113.87109375 C-317.88545415 117.52441803 -311.24788096 121.39288173 -304.81640625 125.87109375 C-305.36648874 130.36343412 -307.24713131 133.48654696 -309.69140625 137.18359375 C-315.91802567 146.87416064 -321.76759734 156.78403529 -327.61010742 166.70898438 C-328.43129862 168.10297019 -329.25266793 169.4968511 -330.07421875 170.890625 C-330.47697525 171.5740799 -330.87973175 172.25753479 -331.29469299 172.96170044 C-333.78001192 177.16377205 -336.32869624 181.3163001 -338.93359375 185.4453125 C-339.54291748 186.42612793 -340.15224121 187.40694336 -340.7800293 188.41748047 C-341.88673806 190.19329271 -343.01178395 191.95788068 -344.15942383 193.70751953 C-346.74402317 197.89860052 -348.1052212 201.03035701 -348.00102228 206.00312847 C-347.98095701 206.97029863 -347.96089175 207.93746879 -347.94021844 208.93394714 C-347.7488188 213.47444352 -347.42911581 217.99285372 -347.03833103 222.520257 C-346.9121524 224.04674011 -346.9121524 224.04674011 -346.78342471 225.60406128 C-346.50159276 229.00009428 -346.21326333 232.39554315 -345.92494202 235.79103088 C-345.71902484 238.25587085 -345.51350929 240.72074439 -345.30836004 243.18564838 C-344.86199847 248.53762928 -344.41280671 253.88936132 -343.9610939 259.24089241 C-343.289389 267.19888585 -342.62295389 275.15731453 -341.95757197 283.11583883 C-340.83777833 296.50768096 -339.71371229 309.89916127 -338.58717537 323.2904377 C-337.47149334 336.55279344 -336.35764162 349.81530075 -335.24624443 363.07801628 C-335.14248611 364.31617875 -335.14248611 364.31617875 -335.03663166 365.5793546 C-334.68531606 369.77175304 -334.3340313 373.96415407 -333.98275726 378.156556 C-331.49524287 407.84386036 -329.00336714 437.53079721 -326.5090332 467.2175293 C-324.08817732 496.02981477 -321.66969389 524.84229794 -319.25415039 553.6550293 C-319.17973066 554.54270326 -319.10531093 555.43037721 -319.02863605 556.34495038 C-318.42991664 563.4864509 -317.83120701 570.62795224 -317.23251494 577.76945505 C-314.64847808 608.59312698 -312.06270777 639.4166535 -309.47643065 670.24013753 C-309.05874769 675.2181354 -308.64109204 680.19613557 -308.22345834 685.17413758 C-306.69038748 703.44753442 -305.15677169 721.7208853 -303.62141807 739.9940905 C-303.01535243 747.20734751 -302.40951085 754.42062313 -301.80438232 761.63395882 C-301.25054975 768.23579671 -300.6959103 774.83756646 -300.14069515 781.43928825 C-299.93986509 783.82873506 -299.73930174 786.2182043 -299.53903068 788.60769803 C-299.26686509 791.85445169 -298.99371716 795.10112127 -298.72032261 798.34777164 C-298.64273235 799.27615141 -298.56514209 800.20453118 -298.48520061 801.16104367 C-298.33932653 802.88861438 -298.18764284 804.61570752 -298.02926738 806.34217704 C-297.88084965 808.10546789 -297.7666228 809.87182684 -297.67870294 811.63916736 C-297.62300176 812.53087159 -297.56730058 813.42257581 -297.50991148 814.34130138 C-297.47166166 815.13966515 -297.43341184 815.93802893 -297.39400294 816.76058554 C-296.62323312 819.5769383 -295.24063701 820.36341055 -292.81640625 821.87109375 C-293.36364308 825.2457209 -293.87130625 826.95344375 -295.81640625 829.87109375 C-295.96804087 832.07477162 -295.96804087 832.07477162 -295.70448303 834.53987122 C-295.62832071 835.50882387 -295.55215839 836.47777653 -295.47368813 837.47609138 C-295.37803755 838.54721609 -295.28238697 839.6183408 -295.18383789 840.72192383 C-295.09081579 841.86427931 -294.99779369 843.00663479 -294.90195274 844.1836071 C-294.63913561 847.38452648 -294.3662939 850.58441717 -294.08945727 853.78414893 C-293.79079849 857.26459128 -293.50495037 860.74608684 -293.2177887 864.22749329 C-292.70636325 870.40986481 -292.18735553 876.59156565 -291.66485596 882.77301025 C-290.77423082 893.32146261 -289.9133857 903.87228804 -289.05419922 914.42333984 C-287.63580479 931.82628776 -286.19783587 949.22753948 -284.74619102 966.62774467 C-283.90815537 976.67568679 -283.0746644 986.72396373 -282.25219727 996.77319336 C-281.51852912 1005.73743237 -280.77664012 1014.70094643 -280.02490288 1023.66368896 C-279.63228156 1028.34774955 -279.24336284 1033.03203958 -278.86443901 1037.71722984 C-275.7436281 1076.23253562 -271.19283448 1116.26335038 -240.81640625 1143.87109375 C-239.67171875 1145.04671875 -239.67171875 1145.04671875 -238.50390625 1146.24609375 C-237.17359375 1147.54546875 -237.17359375 1147.54546875 -235.81640625 1148.87109375 C-235.13191406 1149.54011719 -234.44742188 1150.20914062 -233.7421875 1150.8984375 C-209.84138487 1173.41368636 -176.73200472 1182.94510596 -144.47119141 1182.00292969 C-111.3235054 1180.35682426 -80.62161715 1163.96632171 -58.06640625 1140.05859375 C-42.03063261 1121.35019117 -31.71028466 1098.64121775 -28.31388855 1074.27745056 C-28.12239394 1072.91483861 -28.12239394 1072.91483861 -27.92703074 1071.52469915 C-26.49171181 1060.96355254 -25.60081125 1050.36431442 -24.73168945 1039.74438477 C-24.54457845 1037.51455378 -24.35692999 1035.28476783 -24.16879272 1033.05502319 C-23.66545062 1027.07097521 -23.16969986 1021.08632142 -22.67557168 1015.10150647 C-22.15525232 1008.81398071 -21.62823546 1002.52701593 -21.10209656 996.23997498 C-20.22136764 985.70419125 -19.3452727 975.16802963 -18.47241211 964.6315918 C-17.57556795 953.80571824 -16.67468141 942.98019119 -15.76928711 932.1550293 C-15.71332236 931.48589091 -15.65735762 930.81675253 -15.59969697 930.12733722 C-15.543824 929.45930633 -15.48795103 928.79127543 -15.43038493 928.10300118 C-15.31787047 926.75773449 -15.20535778 925.41246765 -15.09284687 924.06720066 C-15.009601 923.07185515 -15.009601 923.07185515 -14.9246734 922.05640164 C-14.00647998 911.07569206 -13.0925256 900.09462909 -12.17856956 889.11356616 C-11.86732887 885.37669732 -11.5554403 881.63988299 -11.243433 877.90307808 C-10.75427247 872.04181841 -10.26770486 866.18034897 -9.78315353 860.31870651 C-9.60501681 858.16837356 -9.42603996 856.01811002 -9.24616432 853.86792183 C-9.00097785 850.93516934 -8.75885699 848.00217948 -8.51753235 845.06910706 C-8.44565069 844.21766336 -8.37376903 843.36621966 -8.29970914 842.48897463 C-7.20744187 833.59962991 -7.20744187 833.59962991 -10.81640625 825.87109375 C-10.81640625 824.55109375 -10.81640625 823.23109375 -10.81640625 821.87109375 C-10.17442053 821.39813566 -9.53243482 820.92517758 -8.87099499 820.43788743 C-6.62024741 819.04544942 -6.62024741 819.04544942 -6.16520983 816.59008384 C-6.05520928 815.2101778 -6.05520928 815.2101778 -5.94298649 813.80239487 C-5.84623062 812.71100212 -5.74947475 811.61960938 -5.64978689 810.49514413 C-5.51365408 808.64078417 -5.51365408 808.64078417 -5.37477112 806.7489624 C-5.26068074 805.38637777 -5.14473873 804.02394722 -5.02718407 802.66165709 C-4.75931912 799.52309993 -4.50272913 796.38384434 -4.25243306 793.24383831 C-3.78293634 787.39620159 -3.27030019 781.55259325 -2.75535393 775.7088089 C-1.62235155 762.81633979 -0.51523313 749.92171888 0.58710778 737.02659708 C1.00615629 732.12471756 1.42603204 727.2229094 1.84634781 722.32113838 C6.49484827 668.10634123 11.09880565 613.88774391 15.68752658 559.66785718 C16.34966056 551.84447158 17.01206039 544.0211085 17.67456055 536.19775391 C17.74774373 535.33347876 17.82092692 534.4692036 17.89632778 533.5787383 C20.27513779 505.48754153 22.67731474 477.3984033 25.09176238 449.31024899 C27.5791574 420.37211901 30.04411735 391.43216539 32.48042864 362.48968763 C32.82432 358.40448119 33.16846226 354.31929591 33.51275444 350.23412323 C33.61436356 349.02833343 33.61436356 349.02833343 33.71802538 347.79818424 C34.80785697 334.87295647 35.9212106 321.9498586 37.04337941 309.0274027 C38.16932448 296.055471 39.27018639 283.08160377 40.34546138 270.10537192 C40.98470172 262.4003095 41.64303275 254.69743848 42.32890274 246.99638376 C42.83889073 241.24623513 43.31291094 235.49357219 43.77302676 229.73923895 C43.96470176 227.41258327 44.16802718 225.086852 44.38414276 222.76233914 C46.20365542 206.33009157 46.20365542 206.33009157 39.18359375 191.87109375 C38.53285889 190.72713135 37.88212402 189.58316895 37.21166992 188.40454102 C36.63908447 187.42541748 36.06649902 186.44629395 35.4765625 185.4375 C34.81551514 184.30707275 34.15446777 183.17664551 33.47338867 182.01196289 C32.77284514 180.81904311 32.07207481 179.62625649 31.37109375 178.43359375 C31.00964264 177.81757294 30.64819153 177.20155212 30.27578735 176.56686401 C24.54851399 166.81072852 18.74064071 157.10474836 12.87109375 147.43359375 C12.51115326 146.83990997 12.15121277 146.2462262 11.78036499 145.634552 C7.52401464 138.57056336 7.52401464 138.57056336 2.96411133 131.70288086 C1.18359375 128.87109375 1.18359375 128.87109375 1.18359375 125.87109375 C2.80419922 124.52075195 2.80419922 124.52075195 5.05078125 123.171875 C5.85386719 122.68525391 6.65695312 122.19863281 7.484375 121.69726562 C8.75861328 120.94799805 8.75861328 120.94799805 10.05859375 120.18359375 C10.90035156 119.67248047 11.74210937 119.16136719 12.609375 118.63476562 C18.89053634 114.87109375 18.89053634 114.87109375 21.18359375 114.87109375 C22.41357422 116.57324219 22.41357422 116.57324219 23.80078125 118.98046875 C24.31995117 119.87169434 24.83912109 120.76291992 25.37402344 121.68115234 C25.92993164 122.65133301 26.48583984 123.62151367 27.05859375 124.62109375 C28.22729282 126.62923911 29.39657767 128.63704366 30.56640625 130.64453125 C31.46214355 132.18898926 31.46214355 132.18898926 32.37597656 133.76464844 C35.19614895 138.61120076 38.05887404 143.43175118 40.93359375 148.24609375 C41.44647949 149.11331055 41.95936523 149.98052734 42.48779297 150.87402344 C42.95975098 151.66454102 43.43170898 152.45505859 43.91796875 153.26953125 C44.33272461 153.96739746 44.74748047 154.66526367 45.17480469 155.38427734 C45.50770508 155.87492676 45.84060547 156.36557617 46.18359375 156.87109375 C46.51359375 156.87109375 46.84359375 156.87109375 47.18359375 156.87109375 C45.87007553 111.02930799 27.32584138 65.80339877 -3.7421875 32.1328125 C-5.61762211 30.08784708 -7.40673158 27.994899 -9.19140625 25.87109375 C-35.75517608 -4.38376939 -76.07769261 -23.05097053 -114.81640625 -31.12890625 C-115.67250488 -31.30824707 -116.52860352 -31.48758789 -117.41064453 -31.67236328 C-170.0342716 -42.13888362 -225.82391941 -27.14265106 -268.81640625 3.87109375 Z M-369.81640625 238.87109375 C-371.23970746 241.14204991 -372.60064499 243.42650581 -373.94140625 245.74609375 C-374.59749878 246.87156616 -374.59749878 246.87156616 -375.2668457 248.01977539 C-376.78825808 250.63407378 -378.30291256 253.2522034 -379.81640625 255.87109375 C-380.37730957 256.84062988 -380.93821289 257.81016602 -381.51611328 258.80908203 C-385.30638942 265.36351438 -389.08699127 271.92348917 -392.86523438 278.48486328 C-394.75809762 281.76989997 -396.65383332 285.05325811 -398.55078125 288.3359375 C-407.0111589 302.97864125 -415.41857314 317.65106268 -423.80029297 332.33886719 C-426.80390128 337.60185903 -429.81107201 342.86281491 -432.81796265 348.12393188 C-433.8160795 349.87052197 -434.81395969 351.61724706 -435.81176758 353.36401367 C-438.82775455 358.64352383 -441.84492748 363.92234013 -444.86767578 369.19798279 C-452.23818513 382.06205114 -459.56318817 394.94927872 -466.78930664 407.89526367 C-471.08589468 415.58679366 -475.43618647 423.24620499 -479.82324219 430.88647461 C-480.72327358 432.45480333 -481.61995885 434.02505809 -482.51293945 435.59741211 C-483.38788812 437.12361494 -484.2799891 438.64010171 -485.18823242 440.14672852 C-488.21262293 445.27981748 -489.92240714 449.96119781 -491.00390625 455.80859375 C-491.24415527 457.04065552 -491.24415527 457.04065552 -491.48925781 458.29760742 C-501.20671553 509.97726416 -488.77510463 562.21501581 -467.00585938 609.29833984 C-465.86814753 611.7591788 -464.75463757 614.22973911 -463.64453125 616.703125 C-444.40279792 659.01117224 -416.40867853 698.05680677 -386.22119141 733.22802734 C-384.80041443 734.88979812 -383.39137872 736.56093353 -381.984375 738.234375 C-370.27928734 752.10992939 -357.69067706 765.08581051 -344.87890625 777.93359375 C-344.34061188 778.47456696 -343.8023175 779.01554016 -343.24771118 779.57290649 C-333.88430784 789.85452957 -333.88430784 789.85452957 -322.81640625 797.87109375 C-323.42793309 781.95975001 -324.60595066 766.12288058 -325.94684458 750.25783193 C-326.24134048 746.76339448 -326.53142456 743.26859009 -326.82211304 739.77383423 C-327.38935752 732.96246886 -327.96056353 726.15144154 -328.53322005 719.34052927 C-329.20100146 711.39662399 -329.86490265 703.45239578 -330.5287143 695.50815796 C-331.71294887 681.33745056 -332.90087272 667.16705487 -334.09082031 652.99682617 C-335.24425368 639.26140257 -336.3946916 625.52573216 -337.54199219 611.78979492 C-338.79477522 596.79103474 -340.04909732 581.79240486 -341.30619717 566.79400581 C-341.44016481 565.19563196 -341.57413221 563.59725809 -341.70809937 561.9988842 C-341.77400231 561.21262357 -341.83990526 560.42636294 -341.90780526 559.61627622 C-342.37154163 554.08253078 -342.83422651 548.54869799 -343.29653931 543.01483345 C-343.85921155 536.2802537 -344.42370245 529.54582923 -344.99049306 522.81159479 C-345.27944568 519.37798049 -345.5676171 515.94430549 -345.85364914 512.51044655 C-346.16406211 508.789081 -346.47750973 505.06798328 -346.79174805 501.34693909 C-346.88153584 500.26203849 -346.97132364 499.17713789 -347.06383228 498.05936152 C-347.60078241 490.91561067 -347.60078241 490.91561067 -348.81640625 483.87109375 C-350.67364982 482.22862626 -350.67364982 482.22862626 -353.06640625 481.24609375 C-353.88367188 480.83488281 -354.7009375 480.42367187 -355.54296875 480 C-356.29320312 479.62746094 -357.0434375 479.25492188 -357.81640625 478.87109375 C-370.11104245 470.96739905 -375.04052578 454.21066879 -378.2734375 440.75 C-383.15483483 414.86805877 -381.83740641 383.48135003 -366.87890625 360.953125 C-364.67665595 358.06725951 -362.38160175 355.43628925 -359.81640625 352.87109375 C-359.78380625 350.2542996 -359.8779271 347.77056959 -360.07592773 345.16845703 C-360.12876388 344.3715703 -360.18160002 343.57468357 -360.23603725 342.75364876 C-360.41567523 340.12493193 -360.61361164 337.49812105 -360.81640625 334.87109375 C-360.88300068 333.99578758 -360.94959511 333.12048141 -361.01820755 332.21865082 C-361.53433218 325.514088 -362.09690147 318.81368658 -362.6640625 312.11328125 C-362.84221435 309.98668216 -363.02014295 307.86006436 -363.19786072 305.73342896 C-363.66088205 300.19982457 -364.12688758 294.66647563 -364.59356689 289.13317871 C-365.07138187 283.46133611 -365.54630253 277.7892512 -366.02148438 272.1171875 C-366.95033115 261.0349205 -367.88233835 249.95292183 -368.81640625 238.87109375 C-369.14640625 238.87109375 -369.47640625 238.87109375 -369.81640625 238.87109375 Z M66.18359375 239.87109375 C65.06347455 242.11133215 64.9278104 243.65013 64.7149353 246.14009094 C64.63638809 247.03592896 64.55784088 247.93176697 64.47691345 248.85475159 C64.39478104 249.84023483 64.31264862 250.82571808 64.22802734 251.84106445 C64.13849289 252.87695709 64.04895844 253.91284973 63.95671082 254.98013306 C63.66080188 258.41869052 63.37111679 261.8577376 63.08203125 265.296875 C62.87944139 267.68101834 62.67669071 270.06514801 62.4737854 272.44926453 C62.04897989 277.45348659 61.6274799 282.45797466 61.20800781 287.46264648 C60.66972381 293.87938994 60.12124707 300.29521611 59.57001305 306.71085835 C59.14822677 311.63719819 58.7328991 316.56406678 58.31941605 321.49110985 C58.11989915 323.85680234 57.91812345 326.22230545 57.71406174 328.58761024 C57.42944784 331.89552945 57.15378112 335.20407798 56.88037109 338.51293945 C56.79419022 339.49235001 56.70800934 340.47176056 56.61921692 341.48085022 C56.54630936 342.38514771 56.47340179 343.28944519 56.39828491 344.22114563 C56.33229284 345.00299382 56.26630077 345.78484201 56.19830894 346.59038258 C56.17594495 350.05658247 56.43985015 352.91836434 58.6015625 355.6875 C59.18550781 356.26371094 59.76945313 356.83992188 60.37109375 357.43359375 C73.69836317 372.01712217 76.55578707 393.43788954 76.49926758 412.40332031 C76.49611818 414.60402547 76.5196142 416.80336709 76.54492188 419.00390625 C76.63690601 439.45313805 71.84716855 460.68523926 57.8984375 476.3359375 C54.72156835 479.17992287 50.9997534 481.02407248 47.18359375 482.87109375 C46.52359375 483.20109375 45.86359375 483.53109375 45.18359375 483.87109375 C44.67949586 486.36450051 44.67949586 486.36450051 44.47166443 489.45481873 C44.36333471 490.68023565 44.255005 491.90565258 44.14339256 493.16820335 C44.03089386 494.55149377 43.91856853 495.93479829 43.80639648 497.31811523 C43.68065848 498.78298062 43.55409134 500.24777504 43.42676735 501.71250343 C43.07486859 505.78970497 42.73505741 509.86784131 42.39706349 513.94621587 C42.0276065 518.37963128 41.64729449 522.81211726 41.26841736 527.24473572 C40.50531724 536.19424027 39.75297701 545.14462249 39.00359172 554.09528464 C38.35037852 561.89307838 37.69231067 569.69045176 37.03155518 577.48760986 C36.88509542 579.21595336 36.88509542 579.21595336 36.73567688 580.97921288 C36.53578416 583.33794626 36.33588575 585.69667915 36.1359818 588.05541158 C33.8123154 615.48187827 31.51229389 642.91030623 29.21714532 670.33917177 C28.34193673 680.7956222 27.46336841 691.25178859 26.58417803 701.70790488 C25.72422196 711.93697007 24.86649425 722.1662205 24.01052755 732.39562029 C23.50448398 738.44277082 22.99756373 744.48984453 22.48835945 750.53672981 C22.01539358 756.15416804 21.54519864 761.7718313 21.07716751 767.38968277 C20.90563585 769.44290616 20.73311204 771.49604694 20.55951881 773.54909706 C20.32292078 776.34912892 20.08991398 779.14943746 19.85780334 781.94984436 C19.78865017 782.75813016 19.71949699 783.56641595 19.64824826 784.39919525 C19.27892812 788.90816752 19.1188032 793.34689519 19.18359375 797.87109375 C25.37912336 793.52437487 30.71188416 788.62304381 36.03125 783.25390625 C36.84677841 782.43791962 37.66230682 781.62193298 38.50254822 780.78121948 C40.2167247 779.06403781 41.92848629 777.34444239 43.63793945 775.62255859 C46.23663044 773.0056235 48.8432217 770.39676699 51.45117188 767.7890625 C53.12416988 766.11114753 54.79671123 764.43277709 56.46875 762.75390625 C57.62371727 761.59726974 57.62371727 761.59726974 58.80201721 760.41726685 C63.45680203 755.72204726 67.87396556 750.88331132 72.18359375 745.87109375 C73.63804892 744.26341002 75.0958027 742.6586966 76.55859375 741.05859375 C81.28930877 735.80933492 85.75443069 730.37550379 90.18359375 724.87109375 C91.09733817 723.74974073 92.01141514 722.62865864 92.92578125 721.5078125 C124.79206925 682.27951652 152.20237973 638.79784745 171.18359375 591.87109375 C171.50908203 591.06833008 171.83457031 590.26556641 172.16992188 589.43847656 C180.21025296 569.3208632 185.82818844 548.26344315 189.18359375 526.87109375 C189.3007373 526.1450293 189.41788086 525.41896484 189.53857422 524.67089844 C192.91143271 502.91019773 192.12919233 480.47837753 188.18359375 458.87109375 C187.98636719 457.60136719 187.78914062 456.33164062 187.5859375 455.0234375 C185.177948 443.14139093 178.35002716 433.38668096 172.14208984 423.15820312 C168.8530846 417.6379879 165.77537413 412.00337244 162.68359375 406.37109375 C157.95934958 397.80417169 153.14434974 389.30325912 148.18359375 380.87109375 C143.22279938 372.43886315 138.41011171 363.93680372 133.68359375 355.37109375 C128.42011995 345.83667918 123.03497001 336.38728616 117.52124023 326.99560547 C113.04121184 319.36017698 108.62999988 311.68696956 104.24609375 303.99609375 C97.22141363 291.67788717 90.16142486 279.38064314 83.05664062 267.10839844 C81.42691259 264.291637 79.80023437 261.47313761 78.17453003 258.65405273 C76.55578373 255.84952803 74.93183742 253.04801707 73.30859375 250.24609375 C72.70708496 249.20163086 72.10557617 248.15716797 71.48583984 247.08105469 C70.93492676 246.13262695 70.38401367 245.18419922 69.81640625 244.20703125 C69.08768311 242.94705322 69.08768311 242.94705322 68.34423828 241.66162109 C67.96122559 241.07074707 67.57821289 240.47987305 67.18359375 239.87109375 C66.85359375 239.87109375 66.52359375 239.87109375 66.18359375 239.87109375 Z M51.18359375 409.87109375 C51.18359375 413.50109375 51.18359375 417.13109375 51.18359375 420.87109375 C51.51359375 420.87109375 51.84359375 420.87109375 52.18359375 420.87109375 C52.18359375 417.24109375 52.18359375 413.61109375 52.18359375 409.87109375 C51.85359375 409.87109375 51.52359375 409.87109375 51.18359375 409.87109375 Z M-354.81640625 418.87109375 C-354.81640625 422.17109375 -354.81640625 425.47109375 -354.81640625 428.87109375 C-354.48640625 428.87109375 -354.15640625 428.87109375 -353.81640625 428.87109375 C-353.81640625 425.57109375 -353.81640625 422.27109375 -353.81640625 418.87109375 C-354.14640625 418.87109375 -354.47640625 418.87109375 -354.81640625 418.87109375 Z M50.18359375 420.87109375 C50.18359375 423.84109375 50.18359375 426.81109375 50.18359375 429.87109375 C50.51359375 429.87109375 50.84359375 429.87109375 51.18359375 429.87109375 C51.18359375 426.90109375 51.18359375 423.93109375 51.18359375 420.87109375 C50.85359375 420.87109375 50.52359375 420.87109375 50.18359375 420.87109375 Z M-353.81640625 430.87109375 C-352.81640625 434.87109375 -352.81640625 434.87109375 -352.81640625 434.87109375 Z M49.18359375 432.87109375 C50.18359375 435.87109375 50.18359375 435.87109375 50.18359375 435.87109375 Z " fill="#353533" transform="translate(630.81640625,404.12890625)"/>
<path d="M0 0 C72.27 0 144.54 0 219 0 C219 7.92 219 15.84 219 24 C146.73 24 74.46 24 0 24 C0 16.08 0 8.16 0 0 Z " fill="#353533" transform="translate(370,620)"/>
<path d="M0 0 C66.66 0 133.32 0 202 0 C202 7.92 202 15.84 202 24 C135.34 24 68.68 24 0 24 C0 16.08 0 8.16 0 0 Z " fill="#353533" transform="translate(378,693)"/>
<path d="M0 0 C61.38 0 122.76 0 186 0 C186 7.92 186 15.84 186 24 C124.62 24 63.24 24 0 24 C0 16.08 0 8.16 0 0 Z " fill="#353533" transform="translate(386,766)"/>
<path d="M0 0 C55.77 0 111.54 0 169 0 C169 7.92 169 15.84 169 24 C113.23 24 57.46 24 0 24 C0 16.08 0 8.16 0 0 Z " fill="#353533" transform="translate(395,839)"/>
<path d="M0 0 C50.16 0 100.32 0 152 0 C152 7.92 152 15.84 152 24 C101.84 24 51.68 24 0 24 C0 16.08 0 8.16 0 0 Z " fill="#353533" transform="translate(403,911)"/>
<path d="M0 0 C44.88 0 89.76 0 136 0 C136 7.92 136 15.84 136 24 C91.12 24 46.24 24 0 24 C0 16.08 0 8.16 0 0 Z " fill="#353533" transform="translate(411,984)"/>
<path d="M0 0 C39.6 0 79.2 0 120 0 C120 7.92 120 15.84 120 24 C80.4 24 40.8 24 0 24 C0 16.08 0 8.16 0 0 Z " fill="#353533" transform="translate(419,1057)"/>
<path d="M0 0 C33.99 0 67.98 0 103 0 C103 7.92 103 15.84 103 24 C69.01 24 35.02 24 0 24 C0 16.08 0 8.16 0 0 Z " fill="#353533" transform="translate(428,1129)"/>
<path d="M0 0 C28.38 0 56.76 0 86 0 C86 7.92 86 15.84 86 24 C57.62 24 29.24 24 0 24 C0 16.08 0 8.16 0 0 Z " fill="#343433" transform="translate(436,1202)"/>
<path d="M0 0 C23.1 0 46.2 0 70 0 C70 7.92 70 15.84 70 24 C46.9 24 23.8 24 0 24 C0 16.08 0 8.16 0 0 Z " fill="#343433" transform="translate(444,1275)"/>
</svg>
